<mxfile host="Electron" modified="2023-04-25T07:02:12.607Z" agent="Mozilla/5.0 (Windows NT 10.0; Win64; x64) AppleWebKit/537.36 (KHTML, like Gecko) draw.io/21.2.1 Chrome/112.0.5615.87 Electron/24.1.2 Safari/537.36" etag="pxwAvvQuMLYtanZi5Rfn" version="21.2.1" type="device">
  <diagram name="第 1 页" id="HtMs7vhwU_7aUjFlQcku">
    <mxGraphModel dx="1419" dy="814" grid="0" gridSize="10" guides="1" tooltips="1" connect="1" arrows="1" fold="1" page="1" pageScale="1" pageWidth="1250" pageHeight="500" math="1" shadow="0">
      <root>
        <mxCell id="0" />
        <mxCell id="1" parent="0" />
        <mxCell id="iMzCxJ1BoP2q3Y8NNwYc-12" value="" style="rounded=1;whiteSpace=wrap;html=1;arcSize=8;dashed=1;strokeColor=#E82E2E;strokeWidth=1.5;container=0;dashPattern=1 2;fillColor=none;movable=1;resizable=1;rotatable=1;deletable=1;editable=1;locked=0;connectable=1;" vertex="1" parent="1">
          <mxGeometry x="443" y="108" width="364" height="392" as="geometry" />
        </mxCell>
        <mxCell id="iMzCxJ1BoP2q3Y8NNwYc-13" value="" style="endArrow=none;dashed=1;html=1;rounded=0;strokeColor=#E82E2E;strokeWidth=1.5;dashPattern=1 2;fontFamily=Times New Roman;fontSize=16;" edge="1" parent="1">
          <mxGeometry width="50" height="50" relative="1" as="geometry">
            <mxPoint x="444" y="160" as="sourcePoint" />
            <mxPoint x="805" y="160" as="targetPoint" />
          </mxGeometry>
        </mxCell>
        <mxCell id="iMzCxJ1BoP2q3Y8NNwYc-14" value="&lt;font style=&quot;font-size: 32px;&quot; face=&quot;Times New Roman&quot;&gt;&lt;b&gt;Third-party Platform&lt;/b&gt;&lt;/font&gt;" style="text;html=1;align=center;verticalAlign=middle;resizable=0;points=[];autosize=1;strokeColor=none;fillColor=none;container=0;dashed=1;dashPattern=1 2;" vertex="1" parent="1">
          <mxGeometry x="469.9999516908214" y="110.50000000000001" width="314" height="50" as="geometry" />
        </mxCell>
        <mxCell id="iMzCxJ1BoP2q3Y8NNwYc-15" value="" style="shape=flexArrow;endArrow=classic;startArrow=classic;html=1;rounded=0;width=32.4;startSize=9.868;endSize=9.868;fillColor=#e3e7eb;" edge="1" parent="1">
          <mxGeometry width="100" height="100" relative="1" as="geometry">
            <mxPoint x="465.5" y="60.31" as="sourcePoint" />
            <mxPoint x="782.5" y="60.31" as="targetPoint" />
          </mxGeometry>
        </mxCell>
        <mxCell id="iMzCxJ1BoP2q3Y8NNwYc-16" value="&lt;font style=&quot;font-size: 22px;&quot; face=&quot;Times New Roman&quot;&gt;&lt;i&gt;&lt;font color=&quot;#99411c&quot;&gt;&lt;b&gt;Step 1&lt;/b&gt;&lt;/font&gt;&lt;/i&gt;&amp;nbsp;Key Negotiation&lt;/font&gt;" style="edgeLabel;html=1;align=center;verticalAlign=middle;resizable=0;points=[];labelBackgroundColor=none;" vertex="1" connectable="0" parent="iMzCxJ1BoP2q3Y8NNwYc-15">
          <mxGeometry x="0.33" y="1" relative="1" as="geometry">
            <mxPoint x="-51" as="offset" />
          </mxGeometry>
        </mxCell>
        <mxCell id="iMzCxJ1BoP2q3Y8NNwYc-28" value="" style="endArrow=classic;html=1;rounded=0;fontFamily=Times New Roman;fontSize=16;" edge="1" parent="1">
          <mxGeometry width="50" height="50" relative="1" as="geometry">
            <mxPoint x="71" y="178" as="sourcePoint" />
            <mxPoint x="145" y="178" as="targetPoint" />
          </mxGeometry>
        </mxCell>
        <mxCell id="iMzCxJ1BoP2q3Y8NNwYc-93" value="&lt;font face=&quot;Times New Roman&quot; style=&quot;font-size: 24px;&quot;&gt;&lt;i&gt;&lt;font color=&quot;#99411c&quot;&gt;&lt;b&gt;Step 3&lt;/b&gt;&lt;/font&gt;&lt;/i&gt; Secure Comparison&lt;/font&gt;" style="text;html=1;align=center;verticalAlign=middle;resizable=0;points=[];autosize=1;strokeColor=none;fillColor=none;" vertex="1" parent="1">
          <mxGeometry x="490" y="168" width="273" height="41" as="geometry" />
        </mxCell>
        <mxCell id="iMzCxJ1BoP2q3Y8NNwYc-6" value="" style="rounded=1;whiteSpace=wrap;html=1;arcSize=8;dashed=1;strokeColor=#007FFF;strokeWidth=1.5;dashPattern=1 2;fillColor=none;movable=0;resizable=0;rotatable=0;deletable=0;editable=0;locked=1;connectable=0;" vertex="1" parent="1">
          <mxGeometry x="835" width="414" height="500" as="geometry" />
        </mxCell>
        <mxCell id="iMzCxJ1BoP2q3Y8NNwYc-7" value="" style="endArrow=none;dashed=1;html=1;rounded=0;entryX=0.999;entryY=0.14;entryDx=0;entryDy=0;entryPerimeter=0;strokeColor=#007FFF;strokeWidth=1.5;dashPattern=1 2;" edge="1" target="iMzCxJ1BoP2q3Y8NNwYc-6" parent="1">
          <mxGeometry width="50" height="50" relative="1" as="geometry">
            <mxPoint x="835" y="70" as="sourcePoint" />
            <mxPoint x="885" y="20" as="targetPoint" />
          </mxGeometry>
        </mxCell>
        <mxCell id="iMzCxJ1BoP2q3Y8NNwYc-8" value="&lt;font style=&quot;font-size: 32px;&quot; face=&quot;Times New Roman&quot;&gt;&lt;b&gt;Participant 2&lt;/b&gt;&lt;/font&gt;" style="text;html=1;align=center;verticalAlign=middle;resizable=0;points=[];autosize=1;strokeColor=none;fillColor=none;dashed=1;dashPattern=1 2;" vertex="1" parent="1">
          <mxGeometry x="943.5" y="11" width="197" height="50" as="geometry" />
        </mxCell>
        <mxCell id="iMzCxJ1BoP2q3Y8NNwYc-19" value="" style="endArrow=none;dashed=1;html=1;rounded=0;strokeWidth=1.25;strokeColor=#677E99;fontFamily=Times New Roman;fontSize=16;" edge="1" parent="1">
          <mxGeometry width="50" height="50" relative="1" as="geometry">
            <mxPoint x="836" y="306" as="sourcePoint" />
            <mxPoint x="1249" y="306" as="targetPoint" />
          </mxGeometry>
        </mxCell>
        <mxCell id="iMzCxJ1BoP2q3Y8NNwYc-49" value="&lt;font face=&quot;Times New Roman&quot; style=&quot;font-size: 24px;&quot;&gt;&lt;i&gt;&lt;font color=&quot;#99411c&quot;&gt;&lt;b&gt;Step 2&lt;/b&gt;&lt;/font&gt;&lt;/i&gt; Secret Encoding&lt;/font&gt;" style="text;html=1;align=center;verticalAlign=middle;resizable=0;points=[];autosize=1;strokeColor=none;fillColor=none;" vertex="1" parent="1">
          <mxGeometry x="919" y="77" width="243" height="41" as="geometry" />
        </mxCell>
        <mxCell id="iMzCxJ1BoP2q3Y8NNwYc-50" value="Secret \(b\)&amp;nbsp;" style="text;html=1;align=center;verticalAlign=middle;resizable=0;points=[];autosize=1;strokeColor=none;fillColor=none;fontFamily=Times New Roman;fontSize=16;" vertex="1" parent="1">
          <mxGeometry x="828" y="183" width="94" height="31" as="geometry" />
        </mxCell>
        <mxCell id="iMzCxJ1BoP2q3Y8NNwYc-51" value="" style="ellipse;whiteSpace=wrap;html=1;aspect=fixed;fillColor=#7A70FF;strokeColor=none;fontFamily=Times New Roman;fontSize=16;" vertex="1" parent="1">
          <mxGeometry x="851" y="146.4" width="34.5" height="34.5" as="geometry" />
        </mxCell>
        <mxCell id="iMzCxJ1BoP2q3Y8NNwYc-52" value="ORE Encryption" style="text;html=1;align=center;verticalAlign=middle;resizable=0;points=[];autosize=1;strokeColor=none;fillColor=none;fontFamily=Times New Roman;fontSize=16;" vertex="1" parent="1">
          <mxGeometry x="887" y="142.5" width="125" height="31" as="geometry" />
        </mxCell>
        <mxCell id="iMzCxJ1BoP2q3Y8NNwYc-53" value="" style="rounded=0;whiteSpace=wrap;html=1;fontFamily=Times New Roman;fontSize=16;fontColor=default;fillColor=#7A70FF;strokeColor=none;" vertex="1" parent="1">
          <mxGeometry x="1010" y="163" width="72" height="11" as="geometry" />
        </mxCell>
        <mxCell id="iMzCxJ1BoP2q3Y8NNwYc-54" value="Encoding of \(b\)&amp;nbsp;" style="text;html=1;align=center;verticalAlign=middle;resizable=0;points=[];autosize=1;strokeColor=none;fillColor=none;fontFamily=Times New Roman;fontSize=16;" vertex="1" parent="1">
          <mxGeometry x="976.5" y="183" width="132" height="31" as="geometry" />
        </mxCell>
        <mxCell id="iMzCxJ1BoP2q3Y8NNwYc-55" value="Split" style="text;html=1;align=center;verticalAlign=middle;resizable=0;points=[];autosize=1;strokeColor=none;fillColor=none;fontFamily=Times New Roman;fontSize=16;" vertex="1" parent="1">
          <mxGeometry x="1108.5" y="142.5" width="48" height="31" as="geometry" />
        </mxCell>
        <mxCell id="iMzCxJ1BoP2q3Y8NNwYc-56" value="" style="endArrow=classic;html=1;rounded=0;fontFamily=Times New Roman;fontSize=16;" edge="1" parent="1">
          <mxGeometry width="50" height="50" relative="1" as="geometry">
            <mxPoint x="1097.75" y="178" as="sourcePoint" />
            <mxPoint x="1171.75" y="178" as="targetPoint" />
          </mxGeometry>
        </mxCell>
        <mxCell id="iMzCxJ1BoP2q3Y8NNwYc-57" value="" style="rounded=0;whiteSpace=wrap;html=1;fontFamily=Times New Roman;fontSize=16;fontColor=default;fillColor=#9662F0;strokeColor=none;shadow=0;glass=0;fillStyle=auto;" vertex="1" parent="1">
          <mxGeometry x="1195.5" y="148.5" width="36" height="11" as="geometry" />
        </mxCell>
        <mxCell id="iMzCxJ1BoP2q3Y8NNwYc-58" value="" style="rounded=0;whiteSpace=wrap;html=1;fontFamily=Times New Roman;fontSize=16;fontColor=default;fillColor=#F095DE;strokeColor=none;" vertex="1" parent="1">
          <mxGeometry x="1195.5" y="165" width="36" height="11" as="geometry" />
        </mxCell>
        <mxCell id="iMzCxJ1BoP2q3Y8NNwYc-59" value="Pieces" style="text;html=1;align=center;verticalAlign=middle;resizable=0;points=[];autosize=1;strokeColor=none;fillColor=none;fontFamily=Times New Roman;fontSize=16;" vertex="1" parent="1">
          <mxGeometry x="1184.5" y="180" width="59" height="31" as="geometry" />
        </mxCell>
        <mxCell id="iMzCxJ1BoP2q3Y8NNwYc-60" value="" style="endArrow=classic;html=1;rounded=0;fontFamily=Times New Roman;fontSize=16;" edge="1" parent="1">
          <mxGeometry width="50" height="50" relative="1" as="geometry">
            <mxPoint x="910.5" y="178" as="sourcePoint" />
            <mxPoint x="984.5" y="178" as="targetPoint" />
          </mxGeometry>
        </mxCell>
        <mxCell id="iMzCxJ1BoP2q3Y8NNwYc-89" value="" style="group;fillColor=default;flipH=1;" vertex="1" connectable="0" parent="1">
          <mxGeometry x="789.25" y="240" width="186" height="31" as="geometry" />
        </mxCell>
        <mxCell id="iMzCxJ1BoP2q3Y8NNwYc-90" value="" style="shape=flexArrow;endArrow=classic;html=1;rounded=0;labelBackgroundColor=default;strokeColor=default;fontFamily=Times New Roman;fontSize=16;fontColor=default;width=27.142857142857142;endSize=10.557142857142857;endWidth=18.91156462585034;movable=1;resizable=1;rotatable=1;deletable=1;editable=1;locked=0;connectable=1;fillColor=#F0F0F0;" edge="1" parent="iMzCxJ1BoP2q3Y8NNwYc-89">
          <mxGeometry width="50" height="50" relative="1" as="geometry">
            <mxPoint x="172" y="17" as="sourcePoint" />
            <mxPoint y="17" as="targetPoint" />
          </mxGeometry>
        </mxCell>
        <mxCell id="iMzCxJ1BoP2q3Y8NNwYc-91" value="&lt;font style=&quot;font-size: 16px;&quot;&gt;Send \(K_B\) and pieces&lt;/font&gt;" style="text;html=1;align=center;verticalAlign=middle;resizable=0;points=[];autosize=1;strokeColor=none;fillColor=none;fontFamily=Times New Roman;fontSize=16;" vertex="1" parent="iMzCxJ1BoP2q3Y8NNwYc-89">
          <mxGeometry x="11" width="175" height="31" as="geometry" />
        </mxCell>
        <mxCell id="iMzCxJ1BoP2q3Y8NNwYc-87" value="" style="group;fontFamily=Times New Roman;fontSize=16;" vertex="1" connectable="0" parent="1">
          <mxGeometry x="1017.5" y="214" width="226" height="76.34000000000003" as="geometry" />
        </mxCell>
        <mxCell id="iMzCxJ1BoP2q3Y8NNwYc-83" value="" style="shape=image;verticalLabelPosition=bottom;labelBackgroundColor=default;verticalAlign=top;aspect=fixed;imageAspect=0;image=data:image/png,iVBORw0KGgoAAAANSUhEUgAAAMgAAADICAYAAACtWK6eAAAAAXNSR0IArs4c6QAADhJJREFUeF7tnXnQ9tUYxz9ZC2VJjX9aZpAUskdTUWkhRLYmUsxYRo2dsQ1ln7FlKBPKLpWIUFLZUpKtEOKPVMZWWV4TGTPMd/rd9bzP+7zP735+99nP98zc0zPNOde5ru91Pu+9/M65zia4WQErsFEFNrE2VsAKbFwBA+LVYQVWUcCAeHlYAQPiNWAFpingd5BpunlUJwoYkE4S7TCnKWBApunmUZ0oYEA6SbTDnKaAAZmmm0d1ooAB6STRDnOaAgZkmm4e1YkCBqSTRDvMaQoYkGm6eVQnChiQThLtMKcpYECm6eZRnShgQDpJtMOcpoABmaabR3WigAHpJNEOc5oCBmSabh7ViQIGpJNEO8xpChiQabp5VCcKGJBOEu0wpylgQKbp5lGdKGBAOkm0w5ymgAGZpptHzafAYcDuwA7AzsBW8w27udcPgfOAS4DT1zg2SHcDEkRGG1mmwKbAO4GXBFTme8CRwKUBbY6aMiCjErnDGhXYCThheOdY49C5uh8NHDNXzwCdDEgAEW3iZgUEx6nDx6mYsmwHXBVzgpltA5JC5T7mSAWH1DwZODSFrAYkhcrtz5ESjpmahwCnxJbWgMRWuH37OeCQqscBR8WW14DEVrht+7ngkKqXAbvElteAxFa4Xfs54Uj2HdqAtLuAY0ZWAhyKL/r6jT5BzCzZdhYFSoHDgGRJvyddTYGS4DAgXqtFKVAaHAakqOXRtzMlwmFA+l6TxURfKhwGpJgl0q8jJcNhQPpdl0VEXjocBqSIZdKnEzXAYUD6XJvZo64FDgOSfan050BNcBiQ/tZn1ohrg8OAZF0ufU1eIxwGpK81mi3aWuEwINmWTD8T1wyHAelnnWaJtHY4DEiWZdPHpC3AYUD6WKvJo2wFDgOSfOm0P2FLcBiQ9tdr0ghbg8OAJF0+bU/WIhzrgC1ip81n0mMrnN9+i3BI1QuAPWLLa0BiK5zXfqtwSNW9gG/FlteAxFY4n/1W4fgF8HTg8hTSGpAUKqefozQ4zgLOAX66oBR/BK4E/r2gnbmHG5C5paqmY2lwnDb8i1+NgEsdNSBVpm2jTpcGx4uBD9QssQGpOXvr+14aHF8HDqhdXgNSewZv8r80OOST7hM8vnZ5DUjtGSwTDqm6G3BR7fIakLozWOI7x0zRJtZWE0HUvcYne18yHAqqibXVRBCTl1i9A0uHw4DUu7aq97wGOAxI9cuszgBqgcOA1Lm+qva6JjgMSNVLrT7na4PDgNS3xqr1uEY4DEi1y60ux2uFw4DUtc6q9LZmOAxIlUuuHqdrh8OA1LPWqvO0BTgMSHXLrg6HW4HDgNSx3qrysiU4DEhVS698Z1uDw4CUv+aq8bBFOP4CbF1NBlZx1Lt582axRTikaJKibilSZ0BSqLzyHK3CoWiTFHVLkToDkkLlDedoFY6kRd1SpM6AwGbANkte2y75WwXKrgOuXfJf/X0N8OOJCSoNDhV0+xFwKfCniTFpWPKibgv4OvfQ3gC5E7APcCDw0AGEu8+t1vod/wNcPLwuGxaY/rtaKwmOq4C3AydMjL+LYT0A8mBgz6FG0/6Rs3oF8FXg88CFy+YqCY7fA48DxoCOLFf55lsF5BkDFPqyeN9MadDi+zTwrsLqVv0LeDxwfiZdqpq2NUCeORQse2RhWdCX150L8enZwKcK8aV4N1oB5KABjH2LVzyvg+8GXpXXhbpmrx2QvQcwDq5L9izeNvN0O6V6tQLysAGMw1OKVflcuo1J38nc1qBAjYCoKPIH1xCju96kwPuAl1uMtSlQGyDvcZLXluAlvY8Gjpk8utOBNQHyBeDJneYpRNgGZIKKtQCiu+12mRCfh9yigAGZsBpKB0T7on4ObD4hNg9ZXwEDMmFFlAzI7sB3J8TkISsrYEAmrIxSAdly2EE7ISQP2YgCBmTC0igVED3UmrrLdoIMXQzxFpMJaS4RkNMBPxmfkMyRIY8YtuaHt9ywxdIAee1wRqFhybOFpo+t12ebvdKJSwLkCOBjlepYuttvA95QupMl+lcKIPsBunjeLbwClwCPAnQOxG2NCpQAyP2BLwPbr9F3dx9X4H/D7oMvjXd1j5UUKAGQE4HnOj3BFbgROAQ4I7jljgzmBkRv/dqG7RZWgXUDHF8La7Y/a7kBORV4Wn+yR41YZYr0znFu1Fk6MZ4TEBUOOLMTnVOF+YcBju+kmrD1eXICctZQiqd1jVPFpzpXquby/VQT9jBPLkD0EeDkHgROFONvh3cOVUh0C6hALkC0S1e7dd0WV+DyAY6fLW7KFpYrkAOQ5wEfdiqCKpAjj0EDKNVYDmH1UPAJpQpSqV+PBc6u1Pei3U4NyN2Aq4E7FK1Kfc6pFrB/Lo+Qt9SAqDSo6tW6hVcgdS7DR1CgxdSingQ8p0AdWnBJz5VUWd4toAKpAfkdoEIMbuEVUEFqnRp0C6hASkB29UOsgJlb2VTKfEYPpoQJUgr6JkCFA9ziKfAUQAX23AIpkBIQbYHQu4hbPAW0+VPbTdwCKZAKkNsDuhDTLa4CKrKnA2hugRRIBcg9Ae0Xytl0K61uevo18KvBkR2B+wy3P+kuw9rbXwE9a3ILpEAqQB4NfDOQz/Oa+S/w1uGHgYuAf4wM3ALQ1W0qj6MCB7eZd6LC+t0RuKEwn6p1JxUgz0p8L56eB6iSh8CY0gTK64froqeMzzlmB+A3OR1oae5UgLwGeEci4fSvv+AI0QSJ3oVqarpFyseYA2UsFSDHAS8K5PNqZrSV5bOB5zkU+ExgmzHN6d26Jn9jarGw7VSAqOzMExf2dnUDsWNRCZ0a2quHu9lr8LV4H2MvqpkAOukW81ei3Rb4vjFvkvS95MJ5O2fs937gpRnnb2rqVID8GdgqknK6mFIXVKZoLwPem2KiBebw1vcFxFs+NBUgekioh4Whm36t0i7WlO0rhf+6pRKuB6QUpOW5UgGinx3vFVhIPefYM8FHq+Vu66OWyuqU+pzko4CONbsFUCAVIOcBewfwd6mJnDcmlbzxUr69ObDW3ZpLBcjHgcMDq3zQUPQ6sNm5zOkXuVILQutAmvR2C6BAKkDeEuF+irsCfwugwRQTdwG076nE9hhA79huARRIBcjzgRMC+DszoXvTHxTQ3hRTPwEeOGVg5DHafHlF5Dm6MZ8KEJWlCVlpvITjpZ8EDitwpahijC/LCZSYVIDcDwhZ+S/kfqupUpa4T+vaiM+bpupU9bhUgNw58PeFpwK6DTdn0/FWPZQrqeljX8wdCyXFmsSXVIAoGB1U0lbsEM2ArKziRwB933MLpEBKQLRFQ1s1QjR/xFpZxScV/PNziLwnt5ESEP38+I1AEfpL+spCbg78M5DGNgOkBOR2wN+BTQMor/PlDwlgZxETsXcor9U378Faq2Jz9E8JiNzRl1p9uQ3R9MV/7Jx5iHlWsqHz64K9pKaPr8eW5FALvqQGRKcKdbowRNOOVf2rmaPtX+B1A3pH1TurW0AFUgMS8nmINyveshB+CewUcF3Y1KBAakA0bajP7t7ufssyPh440qs6vAI5ANHpv1BHQn1g6qY1oUtRTwm/PGwxByC7AD8A9KtWiJbymUiJ20tU+0tn8t0iKJADEIUR8qGh7MUo97Nc7lLL/7jMTwQwZiZzAaJavRcDWwaMLXYsJZb90YPX/QJqaFPLFIi9qFYT/BjgjYEzEqP8T8nlfry1JPACWm4uJyBbD+8i2weOMWQZoJLL/OiinFAPXQOnoB1zOQGRiq+MVAWwh+LV+wDnt7MUy4wkNyCbDb9o6QFi6Da7/kBnJFSmZ+z8us6Zq4yQjvKWfv3BJ4AjQgtmexsqkBsQefRC4EMJkqNz7DrVuNIFOrqVqcTz5RuT5eHAJQk0636KEgBRElTQwQd95luORwXczzbfjB33KgUQpeAcYN+OczFP6Hp+9Ip5OrpPGAVKAkS1e3WHoJ6RuG2owBeBgy1MWgVKAkSR33u4YPNWaWUofrZLK/uOVLyg8zpYGiDyWz9fnjtvAB30WwfogJZbBgVKBEQyqL7sSRn0KHHK7YCrSnSsB59KBUTal1xBPdXa2AO4INVknmdDBUoGRN4eCOjCmt6aKiTuCFzXW+ClxVs6INJLT9n1kO/WpYkXyR/vsYok7BSzNQCiuO4BnAHsOiXIisa8LuF98hXJks/VWgCRQrcFTiy0onqIDPrimxAqBrZREyCz0EOfRgws6ZrNXQm8YNhJsObBHhBXgRoBkSLa4KgqHjF2AcdVfH3r+ilbxd5CXg2R0v/m56oVECVGW+UFiV6hD13FTvxpw4bDb8eeyPYXU6BmQGaR62TiDJSQZ9wXU3bl0WcPYPT403UMPaPbbAGQmUja5DgDJVRJoVAJ0MM+lVz9XCiDtpNGgZYAmSmmulv6RWgv4AFpZFxxlhuG22bPBHSxjVuFCrQIyNI06Doy3UsiWPTSlvqYTXumdAWzXmcB18eczLbjK9A6IEsVFByqyj57hTp3ovpegkHfL/S3W0MK9ATI8rTpfpFtNvLadvj/un/kauCa4bXS3zc2tB4cyjIFegbEi8EKjCpgQEYlcoeeFTAgPWffsY8qYEBGJXKHnhUwID1n37GPKmBARiVyh54VMCA9Z9+xjypgQEYlcoeeFTAgPWffsY8qYEBGJXKHnhUwID1n37GPKmBARiVyh54VMCA9Z9+xjypgQEYlcoeeFTAgPWffsY8qYEBGJXKHnhUwID1n37GPKmBARiVyh54VMCA9Z9+xjypgQEYlcoeeFTAgPWffsY8qYEBGJXKHnhUwID1n37GPKmBARiVyh54VMCA9Z9+xjyrwfxXSmtg9d/twAAAAAElFTkSuQmCC;fontFamily=Times New Roman;fontSize=16;" vertex="1" parent="iMzCxJ1BoP2q3Y8NNwYc-87">
          <mxGeometry x="31.83000000000004" width="47.34" height="47.34" as="geometry" />
        </mxCell>
        <mxCell id="iMzCxJ1BoP2q3Y8NNwYc-84" value="" style="shape=image;verticalLabelPosition=bottom;labelBackgroundColor=default;verticalAlign=top;aspect=fixed;imageAspect=0;image=data:image/png,iVBORw0KGgoAAAANSUhEUgAAAMgAAADICAYAAACtWK6eAAAAAXNSR0IArs4c6QAADhJJREFUeF7tnXnQ9tUYxz9ZC2VJjX9aZpAUskdTUWkhRLYmUsxYRo2dsQ1ln7FlKBPKLpWIUFLZUpKtEOKPVMZWWV4TGTPMd/rd9bzP+7zP735+99nP98zc0zPNOde5ru91Pu+9/M65zia4WQErsFEFNrE2VsAKbFwBA+LVYQVWUcCAeHlYAQPiNWAFpingd5BpunlUJwoYkE4S7TCnKWBApunmUZ0oYEA6SbTDnKaAAZmmm0d1ooAB6STRDnOaAgZkmm4e1YkCBqSTRDvMaQoYkGm6eVQnChiQThLtMKcpYECm6eZRnShgQDpJtMOcpoABmaabR3WigAHpJNEOc5oCBmSabh7ViQIGpJNEO8xpChiQabp5VCcKGJBOEu0wpylgQKbp5lGdKGBAOkm0w5ymgAGZpptHzafAYcDuwA7AzsBW8w27udcPgfOAS4DT1zg2SHcDEkRGG1mmwKbAO4GXBFTme8CRwKUBbY6aMiCjErnDGhXYCThheOdY49C5uh8NHDNXzwCdDEgAEW3iZgUEx6nDx6mYsmwHXBVzgpltA5JC5T7mSAWH1DwZODSFrAYkhcrtz5ESjpmahwCnxJbWgMRWuH37OeCQqscBR8WW14DEVrht+7ngkKqXAbvElteAxFa4Xfs54Uj2HdqAtLuAY0ZWAhyKL/r6jT5BzCzZdhYFSoHDgGRJvyddTYGS4DAgXqtFKVAaHAakqOXRtzMlwmFA+l6TxURfKhwGpJgl0q8jJcNhQPpdl0VEXjocBqSIZdKnEzXAYUD6XJvZo64FDgOSfan050BNcBiQ/tZn1ohrg8OAZF0ufU1eIxwGpK81mi3aWuEwINmWTD8T1wyHAelnnWaJtHY4DEiWZdPHpC3AYUD6WKvJo2wFDgOSfOm0P2FLcBiQ9tdr0ghbg8OAJF0+bU/WIhzrgC1ip81n0mMrnN9+i3BI1QuAPWLLa0BiK5zXfqtwSNW9gG/FlteAxFY4n/1W4fgF8HTg8hTSGpAUKqefozQ4zgLOAX66oBR/BK4E/r2gnbmHG5C5paqmY2lwnDb8i1+NgEsdNSBVpm2jTpcGx4uBD9QssQGpOXvr+14aHF8HDqhdXgNSewZv8r80OOST7hM8vnZ5DUjtGSwTDqm6G3BR7fIakLozWOI7x0zRJtZWE0HUvcYne18yHAqqibXVRBCTl1i9A0uHw4DUu7aq97wGOAxI9cuszgBqgcOA1Lm+qva6JjgMSNVLrT7na4PDgNS3xqr1uEY4DEi1y60ux2uFw4DUtc6q9LZmOAxIlUuuHqdrh8OA1LPWqvO0BTgMSHXLrg6HW4HDgNSx3qrysiU4DEhVS698Z1uDw4CUv+aq8bBFOP4CbF1NBlZx1Lt582axRTikaJKibilSZ0BSqLzyHK3CoWiTFHVLkToDkkLlDedoFY6kRd1SpM6AwGbANkte2y75WwXKrgOuXfJf/X0N8OOJCSoNDhV0+xFwKfCniTFpWPKibgv4OvfQ3gC5E7APcCDw0AGEu8+t1vod/wNcPLwuGxaY/rtaKwmOq4C3AydMjL+LYT0A8mBgz6FG0/6Rs3oF8FXg88CFy+YqCY7fA48DxoCOLFf55lsF5BkDFPqyeN9MadDi+zTwrsLqVv0LeDxwfiZdqpq2NUCeORQse2RhWdCX150L8enZwKcK8aV4N1oB5KABjH2LVzyvg+8GXpXXhbpmrx2QvQcwDq5L9izeNvN0O6V6tQLysAGMw1OKVflcuo1J38nc1qBAjYCoKPIH1xCju96kwPuAl1uMtSlQGyDvcZLXluAlvY8Gjpk8utOBNQHyBeDJneYpRNgGZIKKtQCiu+12mRCfh9yigAGZsBpKB0T7on4ObD4hNg9ZXwEDMmFFlAzI7sB3J8TkISsrYEAmrIxSAdly2EE7ISQP2YgCBmTC0igVED3UmrrLdoIMXQzxFpMJaS4RkNMBPxmfkMyRIY8YtuaHt9ywxdIAee1wRqFhybOFpo+t12ebvdKJSwLkCOBjlepYuttvA95QupMl+lcKIPsBunjeLbwClwCPAnQOxG2NCpQAyP2BLwPbr9F3dx9X4H/D7oMvjXd1j5UUKAGQE4HnOj3BFbgROAQ4I7jljgzmBkRv/dqG7RZWgXUDHF8La7Y/a7kBORV4Wn+yR41YZYr0znFu1Fk6MZ4TEBUOOLMTnVOF+YcBju+kmrD1eXICctZQiqd1jVPFpzpXquby/VQT9jBPLkD0EeDkHgROFONvh3cOVUh0C6hALkC0S1e7dd0WV+DyAY6fLW7KFpYrkAOQ5wEfdiqCKpAjj0EDKNVYDmH1UPAJpQpSqV+PBc6u1Pei3U4NyN2Aq4E7FK1Kfc6pFrB/Lo+Qt9SAqDSo6tW6hVcgdS7DR1CgxdSingQ8p0AdWnBJz5VUWd4toAKpAfkdoEIMbuEVUEFqnRp0C6hASkB29UOsgJlb2VTKfEYPpoQJUgr6JkCFA9ziKfAUQAX23AIpkBIQbYHQu4hbPAW0+VPbTdwCKZAKkNsDuhDTLa4CKrKnA2hugRRIBcg9Ae0Xytl0K61uevo18KvBkR2B+wy3P+kuw9rbXwE9a3ILpEAqQB4NfDOQz/Oa+S/w1uGHgYuAf4wM3ALQ1W0qj6MCB7eZd6LC+t0RuKEwn6p1JxUgz0p8L56eB6iSh8CY0gTK64froqeMzzlmB+A3OR1oae5UgLwGeEci4fSvv+AI0QSJ3oVqarpFyseYA2UsFSDHAS8K5PNqZrSV5bOB5zkU+ExgmzHN6d26Jn9jarGw7VSAqOzMExf2dnUDsWNRCZ0a2quHu9lr8LV4H2MvqpkAOukW81ei3Rb4vjFvkvS95MJ5O2fs937gpRnnb2rqVID8GdgqknK6mFIXVKZoLwPem2KiBebw1vcFxFs+NBUgekioh4Whm36t0i7WlO0rhf+6pRKuB6QUpOW5UgGinx3vFVhIPefYM8FHq+Vu66OWyuqU+pzko4CONbsFUCAVIOcBewfwd6mJnDcmlbzxUr69ObDW3ZpLBcjHgcMDq3zQUPQ6sNm5zOkXuVILQutAmvR2C6BAKkDeEuF+irsCfwugwRQTdwG076nE9hhA79huARRIBcjzgRMC+DszoXvTHxTQ3hRTPwEeOGVg5DHafHlF5Dm6MZ8KEJWlCVlpvITjpZ8EDitwpahijC/LCZSYVIDcDwhZ+S/kfqupUpa4T+vaiM+bpupU9bhUgNw58PeFpwK6DTdn0/FWPZQrqeljX8wdCyXFmsSXVIAoGB1U0lbsEM2ArKziRwB933MLpEBKQLRFQ1s1QjR/xFpZxScV/PNziLwnt5ESEP38+I1AEfpL+spCbg78M5DGNgOkBOR2wN+BTQMor/PlDwlgZxETsXcor9U378Faq2Jz9E8JiNzRl1p9uQ3R9MV/7Jx5iHlWsqHz64K9pKaPr8eW5FALvqQGRKcKdbowRNOOVf2rmaPtX+B1A3pH1TurW0AFUgMS8nmINyveshB+CewUcF3Y1KBAakA0bajP7t7ufssyPh440qs6vAI5ANHpv1BHQn1g6qY1oUtRTwm/PGwxByC7AD8A9KtWiJbymUiJ20tU+0tn8t0iKJADEIUR8qGh7MUo97Nc7lLL/7jMTwQwZiZzAaJavRcDWwaMLXYsJZb90YPX/QJqaFPLFIi9qFYT/BjgjYEzEqP8T8nlfry1JPACWm4uJyBbD+8i2weOMWQZoJLL/OiinFAPXQOnoB1zOQGRiq+MVAWwh+LV+wDnt7MUy4wkNyCbDb9o6QFi6Da7/kBnJFSmZ+z8us6Zq4yQjvKWfv3BJ4AjQgtmexsqkBsQefRC4EMJkqNz7DrVuNIFOrqVqcTz5RuT5eHAJQk0636KEgBRElTQwQd95luORwXczzbfjB33KgUQpeAcYN+OczFP6Hp+9Ip5OrpPGAVKAkS1e3WHoJ6RuG2owBeBgy1MWgVKAkSR33u4YPNWaWUofrZLK/uOVLyg8zpYGiDyWz9fnjtvAB30WwfogJZbBgVKBEQyqL7sSRn0KHHK7YCrSnSsB59KBUTal1xBPdXa2AO4INVknmdDBUoGRN4eCOjCmt6aKiTuCFzXW+ClxVs6INJLT9n1kO/WpYkXyR/vsYok7BSzNQCiuO4BnAHsOiXIisa8LuF98hXJks/VWgCRQrcFTiy0onqIDPrimxAqBrZREyCz0EOfRgws6ZrNXQm8YNhJsObBHhBXgRoBkSLa4KgqHjF2AcdVfH3r+ilbxd5CXg2R0v/m56oVECVGW+UFiV6hD13FTvxpw4bDb8eeyPYXU6BmQGaR62TiDJSQZ9wXU3bl0WcPYPT403UMPaPbbAGQmUja5DgDJVRJoVAJ0MM+lVz9XCiDtpNGgZYAmSmmulv6RWgv4AFpZFxxlhuG22bPBHSxjVuFCrQIyNI06Doy3UsiWPTSlvqYTXumdAWzXmcB18eczLbjK9A6IEsVFByqyj57hTp3ovpegkHfL/S3W0MK9ATI8rTpfpFtNvLadvj/un/kauCa4bXS3zc2tB4cyjIFegbEi8EKjCpgQEYlcoeeFTAgPWffsY8qYEBGJXKHnhUwID1n37GPKmBARiVyh54VMCA9Z9+xjypgQEYlcoeeFTAgPWffsY8qYEBGJXKHnhUwID1n37GPKmBARiVyh54VMCA9Z9+xjypgQEYlcoeeFTAgPWffsY8qYEBGJXKHnhUwID1n37GPKmBARiVyh54VMCA9Z9+xjypgQEYlcoeeFTAgPWffsY8qYEBGJXKHnhUwID1n37GPKmBARiVyh54VMCA9Z9+xjyrwfxXSmtg9d/twAAAAAElFTkSuQmCC;fontFamily=Times New Roman;fontSize=16;" vertex="1" parent="iMzCxJ1BoP2q3Y8NNwYc-87">
          <mxGeometry x="73.83000000000004" width="47.34" height="47.34" as="geometry" />
        </mxCell>
        <mxCell id="iMzCxJ1BoP2q3Y8NNwYc-85" value="" style="shape=image;verticalLabelPosition=bottom;labelBackgroundColor=default;verticalAlign=top;aspect=fixed;imageAspect=0;image=data:image/png,iVBORw0KGgoAAAANSUhEUgAAAMgAAADICAYAAACtWK6eAAAAAXNSR0IArs4c6QAADhJJREFUeF7tnXnQ9tUYxz9ZC2VJjX9aZpAUskdTUWkhRLYmUsxYRo2dsQ1ln7FlKBPKLpWIUFLZUpKtEOKPVMZWWV4TGTPMd/rd9bzP+7zP735+99nP98zc0zPNOde5ru91Pu+9/M65zia4WQErsFEFNrE2VsAKbFwBA+LVYQVWUcCAeHlYAQPiNWAFpingd5BpunlUJwoYkE4S7TCnKWBApunmUZ0oYEA6SbTDnKaAAZmmm0d1ooAB6STRDnOaAgZkmm4e1YkCBqSTRDvMaQoYkGm6eVQnChiQThLtMKcpYECm6eZRnShgQDpJtMOcpoABmaabR3WigAHpJNEOc5oCBmSabh7ViQIGpJNEO8xpChiQabp5VCcKGJBOEu0wpylgQKbp5lGdKGBAOkm0w5ymgAGZpptHzafAYcDuwA7AzsBW8w27udcPgfOAS4DT1zg2SHcDEkRGG1mmwKbAO4GXBFTme8CRwKUBbY6aMiCjErnDGhXYCThheOdY49C5uh8NHDNXzwCdDEgAEW3iZgUEx6nDx6mYsmwHXBVzgpltA5JC5T7mSAWH1DwZODSFrAYkhcrtz5ESjpmahwCnxJbWgMRWuH37OeCQqscBR8WW14DEVrht+7ngkKqXAbvElteAxFa4Xfs54Uj2HdqAtLuAY0ZWAhyKL/r6jT5BzCzZdhYFSoHDgGRJvyddTYGS4DAgXqtFKVAaHAakqOXRtzMlwmFA+l6TxURfKhwGpJgl0q8jJcNhQPpdl0VEXjocBqSIZdKnEzXAYUD6XJvZo64FDgOSfan050BNcBiQ/tZn1ohrg8OAZF0ufU1eIxwGpK81mi3aWuEwINmWTD8T1wyHAelnnWaJtHY4DEiWZdPHpC3AYUD6WKvJo2wFDgOSfOm0P2FLcBiQ9tdr0ghbg8OAJF0+bU/WIhzrgC1ip81n0mMrnN9+i3BI1QuAPWLLa0BiK5zXfqtwSNW9gG/FlteAxFY4n/1W4fgF8HTg8hTSGpAUKqefozQ4zgLOAX66oBR/BK4E/r2gnbmHG5C5paqmY2lwnDb8i1+NgEsdNSBVpm2jTpcGx4uBD9QssQGpOXvr+14aHF8HDqhdXgNSewZv8r80OOST7hM8vnZ5DUjtGSwTDqm6G3BR7fIakLozWOI7x0zRJtZWE0HUvcYne18yHAqqibXVRBCTl1i9A0uHw4DUu7aq97wGOAxI9cuszgBqgcOA1Lm+qva6JjgMSNVLrT7na4PDgNS3xqr1uEY4DEi1y60ux2uFw4DUtc6q9LZmOAxIlUuuHqdrh8OA1LPWqvO0BTgMSHXLrg6HW4HDgNSx3qrysiU4DEhVS698Z1uDw4CUv+aq8bBFOP4CbF1NBlZx1Lt582axRTikaJKibilSZ0BSqLzyHK3CoWiTFHVLkToDkkLlDedoFY6kRd1SpM6AwGbANkte2y75WwXKrgOuXfJf/X0N8OOJCSoNDhV0+xFwKfCniTFpWPKibgv4OvfQ3gC5E7APcCDw0AGEu8+t1vod/wNcPLwuGxaY/rtaKwmOq4C3AydMjL+LYT0A8mBgz6FG0/6Rs3oF8FXg88CFy+YqCY7fA48DxoCOLFf55lsF5BkDFPqyeN9MadDi+zTwrsLqVv0LeDxwfiZdqpq2NUCeORQse2RhWdCX150L8enZwKcK8aV4N1oB5KABjH2LVzyvg+8GXpXXhbpmrx2QvQcwDq5L9izeNvN0O6V6tQLysAGMw1OKVflcuo1J38nc1qBAjYCoKPIH1xCju96kwPuAl1uMtSlQGyDvcZLXluAlvY8Gjpk8utOBNQHyBeDJneYpRNgGZIKKtQCiu+12mRCfh9yigAGZsBpKB0T7on4ObD4hNg9ZXwEDMmFFlAzI7sB3J8TkISsrYEAmrIxSAdly2EE7ISQP2YgCBmTC0igVED3UmrrLdoIMXQzxFpMJaS4RkNMBPxmfkMyRIY8YtuaHt9ywxdIAee1wRqFhybOFpo+t12ebvdKJSwLkCOBjlepYuttvA95QupMl+lcKIPsBunjeLbwClwCPAnQOxG2NCpQAyP2BLwPbr9F3dx9X4H/D7oMvjXd1j5UUKAGQE4HnOj3BFbgROAQ4I7jljgzmBkRv/dqG7RZWgXUDHF8La7Y/a7kBORV4Wn+yR41YZYr0znFu1Fk6MZ4TEBUOOLMTnVOF+YcBju+kmrD1eXICctZQiqd1jVPFpzpXquby/VQT9jBPLkD0EeDkHgROFONvh3cOVUh0C6hALkC0S1e7dd0WV+DyAY6fLW7KFpYrkAOQ5wEfdiqCKpAjj0EDKNVYDmH1UPAJpQpSqV+PBc6u1Pei3U4NyN2Aq4E7FK1Kfc6pFrB/Lo+Qt9SAqDSo6tW6hVcgdS7DR1CgxdSingQ8p0AdWnBJz5VUWd4toAKpAfkdoEIMbuEVUEFqnRp0C6hASkB29UOsgJlb2VTKfEYPpoQJUgr6JkCFA9ziKfAUQAX23AIpkBIQbYHQu4hbPAW0+VPbTdwCKZAKkNsDuhDTLa4CKrKnA2hugRRIBcg9Ae0Xytl0K61uevo18KvBkR2B+wy3P+kuw9rbXwE9a3ILpEAqQB4NfDOQz/Oa+S/w1uGHgYuAf4wM3ALQ1W0qj6MCB7eZd6LC+t0RuKEwn6p1JxUgz0p8L56eB6iSh8CY0gTK64froqeMzzlmB+A3OR1oae5UgLwGeEci4fSvv+AI0QSJ3oVqarpFyseYA2UsFSDHAS8K5PNqZrSV5bOB5zkU+ExgmzHN6d26Jn9jarGw7VSAqOzMExf2dnUDsWNRCZ0a2quHu9lr8LV4H2MvqpkAOukW81ei3Rb4vjFvkvS95MJ5O2fs937gpRnnb2rqVID8GdgqknK6mFIXVKZoLwPem2KiBebw1vcFxFs+NBUgekioh4Whm36t0i7WlO0rhf+6pRKuB6QUpOW5UgGinx3vFVhIPefYM8FHq+Vu66OWyuqU+pzko4CONbsFUCAVIOcBewfwd6mJnDcmlbzxUr69ObDW3ZpLBcjHgcMDq3zQUPQ6sNm5zOkXuVILQutAmvR2C6BAKkDeEuF+irsCfwugwRQTdwG076nE9hhA79huARRIBcjzgRMC+DszoXvTHxTQ3hRTPwEeOGVg5DHafHlF5Dm6MZ8KEJWlCVlpvITjpZ8EDitwpahijC/LCZSYVIDcDwhZ+S/kfqupUpa4T+vaiM+bpupU9bhUgNw58PeFpwK6DTdn0/FWPZQrqeljX8wdCyXFmsSXVIAoGB1U0lbsEM2ArKziRwB933MLpEBKQLRFQ1s1QjR/xFpZxScV/PNziLwnt5ESEP38+I1AEfpL+spCbg78M5DGNgOkBOR2wN+BTQMor/PlDwlgZxETsXcor9U378Faq2Jz9E8JiNzRl1p9uQ3R9MV/7Jx5iHlWsqHz64K9pKaPr8eW5FALvqQGRKcKdbowRNOOVf2rmaPtX+B1A3pH1TurW0AFUgMS8nmINyveshB+CewUcF3Y1KBAakA0bajP7t7ufssyPh440qs6vAI5ANHpv1BHQn1g6qY1oUtRTwm/PGwxByC7AD8A9KtWiJbymUiJ20tU+0tn8t0iKJADEIUR8qGh7MUo97Nc7lLL/7jMTwQwZiZzAaJavRcDWwaMLXYsJZb90YPX/QJqaFPLFIi9qFYT/BjgjYEzEqP8T8nlfry1JPACWm4uJyBbD+8i2weOMWQZoJLL/OiinFAPXQOnoB1zOQGRiq+MVAWwh+LV+wDnt7MUy4wkNyCbDb9o6QFi6Da7/kBnJFSmZ+z8us6Zq4yQjvKWfv3BJ4AjQgtmexsqkBsQefRC4EMJkqNz7DrVuNIFOrqVqcTz5RuT5eHAJQk0636KEgBRElTQwQd95luORwXczzbfjB33KgUQpeAcYN+OczFP6Hp+9Ip5OrpPGAVKAkS1e3WHoJ6RuG2owBeBgy1MWgVKAkSR33u4YPNWaWUofrZLK/uOVLyg8zpYGiDyWz9fnjtvAB30WwfogJZbBgVKBEQyqL7sSRn0KHHK7YCrSnSsB59KBUTal1xBPdXa2AO4INVknmdDBUoGRN4eCOjCmt6aKiTuCFzXW+ClxVs6INJLT9n1kO/WpYkXyR/vsYok7BSzNQCiuO4BnAHsOiXIisa8LuF98hXJks/VWgCRQrcFTiy0onqIDPrimxAqBrZREyCz0EOfRgws6ZrNXQm8YNhJsObBHhBXgRoBkSLa4KgqHjF2AcdVfH3r+ilbxd5CXg2R0v/m56oVECVGW+UFiV6hD13FTvxpw4bDb8eeyPYXU6BmQGaR62TiDJSQZ9wXU3bl0WcPYPT403UMPaPbbAGQmUja5DgDJVRJoVAJ0MM+lVz9XCiDtpNGgZYAmSmmulv6RWgv4AFpZFxxlhuG22bPBHSxjVuFCrQIyNI06Doy3UsiWPTSlvqYTXumdAWzXmcB18eczLbjK9A6IEsVFByqyj57hTp3ovpegkHfL/S3W0MK9ATI8rTpfpFtNvLadvj/un/kauCa4bXS3zc2tB4cyjIFegbEi8EKjCpgQEYlcoeeFTAgPWffsY8qYEBGJXKHnhUwID1n37GPKmBARiVyh54VMCA9Z9+xjypgQEYlcoeeFTAgPWffsY8qYEBGJXKHnhUwID1n37GPKmBARiVyh54VMCA9Z9+xjypgQEYlcoeeFTAgPWffsY8qYEBGJXKHnhUwID1n37GPKmBARiVyh54VMCA9Z9+xjypgQEYlcoeeFTAgPWffsY8qYEBGJXKHnhUwID1n37GPKmBARiVyh54VMCA9Z9+xjyrwfxXSmtg9d/twAAAAAElFTkSuQmCC;fontFamily=Times New Roman;fontSize=16;" vertex="1" parent="iMzCxJ1BoP2q3Y8NNwYc-87">
          <mxGeometry x="113.83000000000004" width="47.34" height="47.34" as="geometry" />
        </mxCell>
        <mxCell id="iMzCxJ1BoP2q3Y8NNwYc-100" value="&lt;font face=&quot;Times New Roman&quot; style=&quot;font-size: 24px;&quot;&gt;&lt;i&gt;&lt;font color=&quot;#99411c&quot;&gt;&lt;b&gt;Step 5&lt;/b&gt;&lt;/font&gt;&lt;/i&gt; Result Decoding&lt;/font&gt;" style="text;html=1;align=center;verticalAlign=middle;resizable=0;points=[];autosize=1;strokeColor=none;fillColor=none;" vertex="1" parent="1">
          <mxGeometry x="920" y="310" width="245" height="41" as="geometry" />
        </mxCell>
        <mxCell id="iMzCxJ1BoP2q3Y8NNwYc-3" value="" style="rounded=1;whiteSpace=wrap;html=1;arcSize=8;dashed=1;strokeColor=#00CC00;strokeWidth=1.5;dashPattern=1 2;movable=0;resizable=0;rotatable=0;deletable=0;editable=0;locked=1;connectable=0;" vertex="1" parent="1">
          <mxGeometry x="2" width="414" height="500" as="geometry" />
        </mxCell>
        <mxCell id="iMzCxJ1BoP2q3Y8NNwYc-4" value="" style="endArrow=none;dashed=1;html=1;rounded=0;entryX=0.999;entryY=0.14;entryDx=0;entryDy=0;entryPerimeter=0;strokeColor=#00CC00;strokeWidth=1.5;dashPattern=1 2;" edge="1" parent="1" target="iMzCxJ1BoP2q3Y8NNwYc-3">
          <mxGeometry width="50" height="50" relative="1" as="geometry">
            <mxPoint x="2" y="70" as="sourcePoint" />
            <mxPoint x="52" y="20" as="targetPoint" />
          </mxGeometry>
        </mxCell>
        <mxCell id="iMzCxJ1BoP2q3Y8NNwYc-5" value="&lt;font style=&quot;font-size: 32px;&quot; face=&quot;Times New Roman&quot;&gt;&lt;b&gt;Participant 1&lt;/b&gt;&lt;/font&gt;" style="text;html=1;align=center;verticalAlign=middle;resizable=0;points=[];autosize=1;strokeColor=none;fillColor=none;dashed=1;dashPattern=1 2;" vertex="1" parent="1">
          <mxGeometry x="110.5" y="11" width="197" height="50" as="geometry" />
        </mxCell>
        <mxCell id="iMzCxJ1BoP2q3Y8NNwYc-18" value="" style="endArrow=none;dashed=1;html=1;rounded=0;strokeWidth=1.25;strokeColor=#677E99;fontFamily=Times New Roman;fontSize=16;" edge="1" parent="1">
          <mxGeometry width="50" height="50" relative="1" as="geometry">
            <mxPoint x="3" y="306" as="sourcePoint" />
            <mxPoint x="416" y="306" as="targetPoint" />
          </mxGeometry>
        </mxCell>
        <mxCell id="iMzCxJ1BoP2q3Y8NNwYc-22" value="&lt;font face=&quot;Times New Roman&quot; style=&quot;font-size: 24px;&quot;&gt;&lt;i&gt;&lt;font color=&quot;#99411c&quot;&gt;&lt;b&gt;Step 2&lt;/b&gt;&lt;/font&gt;&lt;/i&gt; Secret Encoding&lt;/font&gt;" style="text;html=1;align=center;verticalAlign=middle;resizable=0;points=[];autosize=1;strokeColor=none;fillColor=none;" vertex="1" parent="1">
          <mxGeometry x="87.5" y="77" width="243" height="41" as="geometry" />
        </mxCell>
        <mxCell id="iMzCxJ1BoP2q3Y8NNwYc-24" value="" style="ellipse;whiteSpace=wrap;html=1;aspect=fixed;fillColor=#FF9F40;strokeColor=none;fontFamily=Times New Roman;fontSize=16;" vertex="1" parent="1">
          <mxGeometry x="15.25" y="145.5" width="34.5" height="34.5" as="geometry" />
        </mxCell>
        <mxCell id="iMzCxJ1BoP2q3Y8NNwYc-27" value="ORE Encryption" style="text;html=1;align=center;verticalAlign=middle;resizable=0;points=[];autosize=1;strokeColor=none;fillColor=none;fontFamily=Times New Roman;fontSize=16;" vertex="1" parent="1">
          <mxGeometry x="49.5" y="142.5" width="125" height="31" as="geometry" />
        </mxCell>
        <mxCell id="iMzCxJ1BoP2q3Y8NNwYc-39" value="" style="rounded=0;whiteSpace=wrap;html=1;fontFamily=Times New Roman;fontSize=16;fontColor=default;fillColor=#FF9F40;strokeColor=none;" vertex="1" parent="1">
          <mxGeometry x="173" y="160.5" width="72" height="11" as="geometry" />
        </mxCell>
        <mxCell id="iMzCxJ1BoP2q3Y8NNwYc-40" value="Encoding of \(a\)&amp;nbsp;" style="text;html=1;align=center;verticalAlign=middle;resizable=0;points=[];autosize=1;strokeColor=none;fillColor=none;fontFamily=Times New Roman;fontSize=16;" vertex="1" parent="1">
          <mxGeometry x="143.5" y="183" width="131" height="31" as="geometry" />
        </mxCell>
        <mxCell id="iMzCxJ1BoP2q3Y8NNwYc-44" value="Split" style="text;html=1;align=center;verticalAlign=middle;resizable=0;points=[];autosize=1;strokeColor=none;fillColor=none;fontFamily=Times New Roman;fontSize=16;" vertex="1" parent="1">
          <mxGeometry x="275.5" y="142.5" width="48" height="31" as="geometry" />
        </mxCell>
        <mxCell id="iMzCxJ1BoP2q3Y8NNwYc-45" value="" style="endArrow=classic;html=1;rounded=0;fontFamily=Times New Roman;fontSize=16;" edge="1" parent="1">
          <mxGeometry width="50" height="50" relative="1" as="geometry">
            <mxPoint x="264.25" y="178" as="sourcePoint" />
            <mxPoint x="338.25" y="178" as="targetPoint" />
          </mxGeometry>
        </mxCell>
        <mxCell id="iMzCxJ1BoP2q3Y8NNwYc-46" value="" style="rounded=0;whiteSpace=wrap;html=1;fontFamily=Times New Roman;fontSize=16;fontColor=default;fillColor=#FF7F36;strokeColor=none;shadow=0;glass=0;fillStyle=auto;" vertex="1" parent="1">
          <mxGeometry x="364" y="148.5" width="36" height="11" as="geometry" />
        </mxCell>
        <mxCell id="iMzCxJ1BoP2q3Y8NNwYc-47" value="" style="rounded=0;whiteSpace=wrap;html=1;fontFamily=Times New Roman;fontSize=16;fontColor=default;fillColor=#FFE354;strokeColor=none;" vertex="1" parent="1">
          <mxGeometry x="364" y="165" width="36" height="11" as="geometry" />
        </mxCell>
        <mxCell id="iMzCxJ1BoP2q3Y8NNwYc-48" value="Pieces" style="text;html=1;align=center;verticalAlign=middle;resizable=0;points=[];autosize=1;strokeColor=none;fillColor=none;fontFamily=Times New Roman;fontSize=16;" vertex="1" parent="1">
          <mxGeometry x="360" y="180.9" width="59" height="31" as="geometry" />
        </mxCell>
        <mxCell id="iMzCxJ1BoP2q3Y8NNwYc-66" value="" style="group;fontFamily=Times New Roman;fontSize=16;" vertex="1" connectable="0" parent="1">
          <mxGeometry x="62.92" y="225" width="107.66" height="35.65999999999997" as="geometry" />
        </mxCell>
        <mxCell id="iMzCxJ1BoP2q3Y8NNwYc-62" value="" style="shape=image;verticalLabelPosition=bottom;labelBackgroundColor=default;verticalAlign=top;aspect=fixed;imageAspect=0;image=data:image/png,iVBORw0KGgoAAAANSUhEUgAAAMgAAADICAYAAACtWK6eAAAAAXNSR0IArs4c6QAAF9hJREFUeF7tnQuwHUWZx79vzkkUQsQFEY2Iecx8cy7RKMmqoBgjiIqCDx664gtR8Yks7vreWlFLXXEfyIKuPBRxVUQIW66AoihKseqWgA+Sm/nmJJE1YPlYXDchuPfmzrfVcS4Vwr3nzDnTPT1zzjdVqSR1u/9f97/7d3v6nH4g6KMOqAPzOoDqjTqgDszvgAKivUMd6OGAAqLdQx1QQLQPqAPDOaAjyHC+aa4xcUABGZOGLlDNVhiGixYsWLBoampqUavVWhQEwSKTT0R2zMzM3DszM7Njn332uXfjxo07CuiNRBIFZCSasXglwjA8HBEngiBYISLLAWBF/mdJcZXdKbcCwJb8760iYv5s6na7tw+oU+vkCkitm6dc4SYmJh69a9eu1UEQrBaRIwHgGQCwXznVvrnN6HIzIv4gy7Lb2u32bZOTk7/qm6umCRSQmjbMsMVasmTJvosXLz5RRF4CACcOq2M533pEvGb79u3r77777p2WtZ3KKSBO7a1OnIieISInIqIB43HVRR4o0p0icg0irmfmmwfK6SmxAuLJeBthwzB8SKvVOlVETgWAZ9vQrEoDEW8AgMuTJPliVTGHiaOADOOa5zwTExPRzMyMgcL8Ic/FKRv+dkS8vN1uX75hw4Z7yorZzq+A2HbUod6yZcsOXrhw4ftE5AwAeKjDUD6kfykiF6Rpeq6P4PPFVEDq1Bo9ykJErwaA94/AiNHP8VsQ8dwkSb7WL2EVP1dAqnC5RIwwDFcGQWDAeHkJmcZlFZHPBkFgQEl8Fl4B8el+n9hRFL0dET8AAAfUuJgui/Y7ADiHmS90GaSXtgLiy/ner1MdAPgQAJxSw+L5KNJl09PT79m6deuvqw6ugFTteJ94RPT6HI5H16xoXosjIncAwHvSNL22yoIoIFW63R+OywDgNTUqUh2LYl65PlhVwRSQqpzuD8e3AeCYmhSn7sW4jJlfW0UhFZAqXO4/Gf85Ij6+BkVpTBFE5KY0TZ/lusAKiGuH+48cZuL5SM/FaGr4XzDzMpeFV0BcutsfDvEYfmRCM7OzfuxMeGTcd1QRIroNAA53JD9usrcz82oXlVZAXLjaf+S4BABe5yH0KIe8lJnNR+RWHwXEqp39xaIoOhcR39k/paYY1AER+USapu8aNF+v9AqITTf7jxxm2cg5FYYcx1BWvydRQCrqQkT0MgC4oqJwYx1GRI639Y27AlJBV4rjeJWIXA8Ag54cUkHpHhQiA4B7ROT3iGg2MJk+cmC+YPLPfBRo0JhmWcquXbuebWPtlgIyqPsDpl+zZs2C7du3fwMAjh4wq+vkv0XEr2dZdm2r1fqFiNwzPT19z5YtW/7QI3AQhuGBQRAciIgHZlm2DhFfCABPcV3YIfStfNuugAzh/CBZiOgCAHjrIHlcpUXE20Tkm1mW3dDtdm+yFWfFihVhEATHIeJxAGD+1OV5W9ml8gqIw6aMosicMnK1wxBFpb8gIhemafqjohmGTWdgabfbp4nI2wBg/2F1LOX7HSIeVWbTlQJiqSXmkonj+CYReabDEP2kbxSR89I0/Xq/hLZ/TkRmT4uBxOvoaXYmpmk69HdOCojtnpHrRVF0BiJ+xpF8P9nJHIyL+iV0/fMwDI9otVpn5kcTuQ43pz4ivmjYPe4KiIMmO+yww/bbtWvXDwFgpQP5fpLn7Nq167w+k+1+GtZ/TkTHiciHEXGNdfH+grcw81H9kz04hQIyjGt98hDR+wDgIw6ke0maj2ffxMwXVxy3cLiVK1ceMDU19bn8k6/C+WwkFJF3D3OkkAJiw/09NMyB0TMzMz+u+DsPc6bUKVVMwm3YFUXRpxDxzTa0BtD45YIFC5406OF0CsgADhdJSkRVLyf5ITObk9sb9cRx/AoR+dcqC42IZydJct4gMRWQQdzqk9bD6GF13ZFFKwpJmVeu6enp/y6U2E6igZfFKyB2jN+tUvHocTEzmyNIG/0Q0WMAYFtVlUDEVw5yYLYCYqllKh49rmPmF1gquneZMAzXBUHw3SoKYk6VT5LkuUVjKSBFneqTLoqiMxHxfEtyvWR+unPnziO3bdt2XwWxKguRnwdW1Sdwa4veT6KAWOoCRHRdBeuQzNKJY5Ik+ZmlYtdKJoqijyOi1Q1Pc1Uw/xL17CKVV0CKuNQnjVl/1Gq1UgtSPSVE5KQ0Tde7juNTP4qiryHiCY7LcOeOHTsOK3IdnAJioSWqeL1CxH9PksQsLR/pJ4qiY/Pbp5zWExFflSRJ34+ZFRALzVDF65WInOBj0aEFewaWIKLPA4C5D8XlY+5JPKlfAAWkn0N9ft7pdJZmWWbuDHf2jMvoMWtgHMd/LiJmaX7gzNQ/CR/CzHf1iqGAlGyBKIpOQ8TPlZTpN/cYm9Fj1ogois5DxLNc+mquyWbmaxQQhy4TkYHjNFchxm30mPUxDMMVQRCYUcTsh3fyiMjH0zR9jwLixN4/iRKReb1a6irEOM099vawgpUJ32XmnmcF6CtWiZ49MTHx+JmZmZ+XkOiX9S5mPhQAzFL2sXuiKHoqIpp9Na6ee5l5Px1BHNkbRdFZiDjQ6tABi/IFZnb9ac6ARao2OREZQJ7qKmqWZWu63a45J3nOR0eQEs7HcfwvIvLGEhL9sr6GmS/vl2iUf+76NctsBU7T9MsKiINeREQ3AMCxDqSNZIaID0+SZLsj/UbIdjodyrLM5VXQ72fmjyogDroDEZnlJaEDaSP5LWZ+jiPtRsk6fs26hJnfoIA46BJEtAsAWg6kARHfkiTJp11oN00zvy/+k47KfSMzP1sBsezu8uXLD22323dalr1frt/k0VXcOuo6/jRrKzMvV0Ast7zrTT7T09OPsnH4suVqe5FzvVq61xVu+inWkE0eRdELzOHPQ2bvl22amRf2SzQuP3e9d73dbi/euHHjjrn8VECG7GWO7/twfnvrkNX2lo2InF142mu0VkCGbPI4jk8XkUuHzN4v29AnAfYTburPicicfnKAi/JnWRZ2u93NOoJYdNfxJytfYea/sFjcxku5/EgdEZ843zZmHUGG7DqOjxf9R2b+qyGLNpLZXH4XEgTB0zdt2vQfOoJY7DpEZJZJf8yi5J5SCshexiogjnqaK9k4jt8sIp9ypH8FM7/ckXYjZaMoYkSMHBX+Scz8Ux1BLLobRdGpiPhFi5J7Sn2fmX1evOOoWsPLEtFvAeARwyvMn3NmZibavHlzVwGx6K7j70E2M7OrNV4WXahOiohmXO1Rb7VaSyYnJ3+lgFhsTyIyF7LcbFFyT6n7mHlfR9qNk12+fPn+7Xb7f1wVPMuy/bvd7v8qIBYd7nQ6T8iyzNkJhwsWLDhw0LssLFavVlJxHC8TkS2uCsXMbQAwI9SDHv2Yd0jXXS9WbLVaT5icnLxjyOKNVLZOp7MmyzJzKZGL525mNifMz/koIENa7nrYF5GT0zStwxXSQzpkL1sURSch4lX2FB+gdDMzr1VAHLjrcn2QOWsrSZLTHRS7cZJxHH9WRF7rqOCXMfO82jqClHCdiMxm/8NLSPTK+ltmfqQj7UbJEtFvAOAgF4VGxL9NkuTDOoI4cJeILgGAoS+p71ekLMue1e12b+qXbpR/7nrfjYi8Ik3TLykgDnoREb0VAC5wID0r+TFmNldKj+1DROZAhfe6MiDLstXdbvd2BcSBw65/uyHibUmSrHFQ9MZIxnF8q4isdlTgHcy8uJe2zkFKOB+G4UFBEJj3Y2ePiBzRlPvPbZvgeC+6Ke71zPx8BcR2y+2hR0QbAWDCYYhLmfn1DvVrK01E5tC8V7kqYL8JuomrI0hJ94noSgA4paRMz+yIeFSSJLe4jFE37SiKjjcn27ssl4gcn6bptTqCOHTZ9dGYu3+LIX4pSZJXOKxG7aSJ6NsAcIzLgvVapDgbV0eQki1QwXvy7hKKyLFpmppOM/JPFEVnIOJnHFdUr2BzbPD98i53u+1Rh2uY+cSq6uQrTr6E5weO53VmVNZLPKtq5Cpes/JRZOTXZ1XkpV4DXRUcJk5Vr1kAsB0RX5wkyXeqrF9VsYjIHCJ9ket4InJemqZnF4mjc5AiLhVIU9FrlinJnVmWrZpvg0+BotYySf5Lxpws4vpmW1P/tcxcaLObAmKpu1T0ajBb2p8ws6tFkpYcGUyGiP4LAB47WK6hUn+bmQvf6aKADOXxgzNV+Jq1O7iIfDNN0+dZKr5XGSIyk/IjqigEIp6eJEnha7sVEIutQkTmS6eeSxcshjNS5zDzBy1rVipX8cjL+evp/xWtpAJS1KkC6YjoJQCwvkBSm0kuZuYzbApWpUVEZkI+7+1ODsox8C8UBcRyK1TxDfAcRb5u586dJ2/btu0+y9VxInfIIYfss++++5ottFWOtn9stVqrJicnzbV5hR8FpLBVxRIS0YsB4Jpiqa2m+ikivnq+Q5itRiohFsfxKhExixCfWEJm4KyIeH6SJGcNmlEBGdSxAumJyHyEaM7Nqvr5nbmWOk3Tql/zCtUziqIT8yUkTk5I7FEInp6eXjvMjV0KSKGmHSxRp9N5bpZl3xgsl9XU15hzg+uydsuszA2C4AwROcFqLYuLDX3fvAJS3OSBUhLR9wHgGQNlspzYrAIGgE/5WipfAzCMo19m5lOHtVYBGda5PvmIKKvRfptLReTiinYmBlEUPd/ziDHbOvdkWba22+1uGLaZFZBhneuRz+X96SWLazqKWcf1DWa+rqTW/dnjOF4sIuYjbnPf+NEAMO9JhbZiFtERkbPSND2/SNr50iggZdybIy8RTQHAAsuyLuTMnX83IOL6IAg2BUFwd9GzgJctW3Zwq9V6TKvVemoOhtnYVMUaqkF8+Cozv3SQDHOlVUDKOrhHfiL6IwA8xKJk1VLme5S7AeCu/G/zb/OYEeGQ/G/z77r/AjBXGRzNzJvKGqiAlHUwz09EOwFgH0tyKlPOgTcwsznUr/SjgJS2EICIzCX0iyxIqUR5Bz7PzKeVl/mTggJS0kki2g4A+5WU0ex2HLiRmc0HBdYeBaSElUT0BwB4WAkJzWrJARG5I03TJ1iSu19GARnSUSL6PQA8fMjsms2uA79h5oPtSuor1tB+EpH5iPSAoQU0o1UHmNnZL3pnwlYdqJGYy+uIa1TNphTldmZ2dbC1TtIH7QVE9GsA0EttBjXOTfpKzizWEaRg4xGR+fLpUQWTazKHDojIJ9I0fZfDEDpJH8RcIjLfLC8ZJI+mdebAwNtmy5RER5A+7hHRL/NlFmV81rzlHTDLXt7BzF8pL1VcQQHp4VUcx3eKyKHF7dSUjhz4DiKe7WM7sQIyT4sS0VYAWOqowfvKIuJLRSQCgLfUZfl430K7SXDh4sWLz7711lun3cj3VlVA5vCHiLYAwDIfDWJiGjiSJPmq+Xen03maiLxVRIbeFeerHmXiIuL3siw73/f+egVkr1Ykoi4ArCjTuGXy7gnHnjpxHJ8uImcCwJPK6Dcg7wYRMWA4P8S6iBcKyB4uRVHEiGhea7w888ExWxgieoSIvNO8jzdgT8agHppJ+IXtdvv8jRs3mtXRtXgUkLwZiMhsrol9tUo/OPYaTZ5uQAGAF/kqr8W4BoyLWq3WRZOTk+a7plo9Cgjs3s/h+qbano0+CBx7ChGROXzNHFRn9oNXehCbhV5cazBm6zf2gBDRHQCw0kKDDyUxLBx7ByMic4znLCxVH8w2SN2vF5Hr2+32VXUcMfauyFgDQkQ/AwDrewiK9hZbcOw1qhg4zIhiYDGnO9Zhv8puKLIsu37z5s3mQ5DGPGMLCBH9xOdriQs49u51q1atWjQ1NXVUlmVHiMiRiHhkRcD8AgBuEpHvtVqtmzZt2mT+38hnLAEhotsAwNsNTVXAMV9vDMPwCEQ8yvwBgMcBgBlxDhryNJYZADBfqG5FxC1Zlk222+0bJycnzWvrSDxjB0gURT9GxDW+Ws8nHL3qHIbhwxBxFhYDzO5/I+ICEdkRBMEOEbnX/Nv8nWXZli1btphr00b6GStAiOg/AeDJvlq0rnD48qMJcccGECL6EQA8xVejKBy+nC8XdywAqfKSyLmaQ+Eo10l95h55QIjoFgB4mi+TFQ5fztuJO9KAeLzpaXfrKBx2OqlPlZEFhIi+BwBrfZmrcPhy3m7ckQQkiqLvIuI6u1YVV1M4intV95QjBwgR3Zhf4uLFe4XDi+3Ogo4UIET0rfyWI2eG9RJWOLzY7jToyAASx/E3ReQ5Tt3qIa5w+HLebdyRAISIrgeA57m1an51hcOX8+7jNh4QIroWAMxeCC+PwuHF9sqCNhoQIvo6ALygMrf2CqRw+HK+uriNBSSKoq8h4gnVWfXASAqHL+erjdtIQIjo33weWKBwVNtJfUZrHCBEtD7fUurFN4XDi+3egjYKkDiOrxKRk7y5lQdWSHy3QHXxGwMIEV0JAKdUZ03vSApJXVrCbTkaAUjd4JhtEoXEbeesg3rtAakrHApJHbqv+zLUGpC6w6GQuO+gviPUFpCmwKGQ+O7CbuPXEpCmwaGQuO2kPtVrB0hT4VBIfHZjd7FrBUjT4VBI3HVUX8q1AWRU4FBIfHVlN3FrAciowaGQuOmsPlS9AzKqcCgkPrqz/ZheARl1OPLmupKZX2a/6VSxCge8ATImcHyZmcfq+uYqOm2VMbwAMg5wiMgX0zR9ZZWNqbHsO1A5IL7hEJGrEPFk+1Y+QPFyZn6N4xgqX4EDlQJSAzhOTdP0CiK62tWmK0T8XJIkp1fQdhqiAgcqA8Q3HADwamb+gvF03bp17bvuumu9gz3tlzDzGypoNw1RkQOVAOIbDkR8XZIkn93T06VLlz504cKFZiSxdWTQRcz8xoraTcNU5IBzQHzDISJvStP0M3P5aW6Bve+++65GxOeW8VtEPp2m6VvKaGjeejrgFJAawPH2NE3/uZf15vLKIAjMQRDHDNlEFzDzmUPm1Ww1d8AZIL7hAIC/ZuZ/KOL/ypUrD5iamjIjyUBXJojIJ9M0/csiMTRNMx1wAkgN4HgvM//dIE0ShuFB+Uhi7g8v8vwTM7+jSEJN01wHrANSAzg+wMwfGqZJJiYmHp1l2dUicmSv/Ij490mSvHOYGJqnWQ5YByQMw5ODIDBH9FjXLmjthizLXtrtdjcWTP+AZGEYHhIEgfl0a84ro0Xk3DRN3z2MtuZpngNOOnEURSciooGk5cmSUpBMTEw8Lsuy9SKyeq/yf4yZ3+epThrWgwNOADH1IKKXAICBpO2hXiZkKUjCMFyRjyRPNGKI+JEkSf7GU100rCcHnAFi6hPH8YtExECy0FP9SkHS6XTIjCQAcDUzf8BTHTSsRwecApJD8sIckod4qmcpSMIwPGzY+Yyn+mpYiw44B8SUNYqi4/M5yT4Wyz6IVClIBgmkaUfLgUoAySExN0FdiYj7erJQIfFkfJPDVgZIPnE/Lp+47+fJNIXEk/FNDVspIPmc5Hn5nGSxJ9MUEk/GNzFs5YAYk8IwfE7+ZeL+nkxTSDwZ37SwXgDJ5yTH5nOSh3syTSHxZHyTwnoDJJ+TmCXm5nuSAzyZppB4Mr4pYb0Cks9JjhaRrwDAIzyZdg4zf9BTbA1bcwe8A2L86XQ667IsMyPJQRX7pXBUbHjTwtUCkHzi/swgCMxIcnBFJiocFRnd5DC1ASSfuK9FRAPJoxybqnA4NnhU5GsFSD5xNzv6DCRLHJmscDgydhRlawdIPnF/ej5xf4xl0xUOy4aOulwtAckn7kdmWWZGksdaagSFw5KR4yRTW0DyifsRZk6CiIeWbBSFo6SB45q91oDkcxKzN9yMJEuHbCSFY0jjNJu/gxUG8p6InpxDsmygjAAKx4CGafIHOlD7EWS2uJ1OZ00+J1lRsBEVjoJGabL5HWgMIPmcZHX+ZWLYp1EVDu31VhxoFCA5JIcHQXCFOThlHgcUDitdQ0WMA40DJJ+4m6N4zMQ93qsZFQ7t11YdaCQgxoE4jleJiBlJJnJHFA6rXUPFGjuCzDbdxMTE42dmZsxIYq5a1iXr2qetO9DYEWTWiTAMV3a73Q3WnVFBdaCpcxBtOXWgKgcaP4JUZZTGGU8HFJDxbHetdUEHFJCCRmmy8XRAARnPdtdaF3RAASlolCYbTwcUkPFsd611QQcUkIJGabLxdEABGc9211oXdOD/AdkR3DLf4+BHAAAAAElFTkSuQmCC;fontFamily=Times New Roman;fontSize=16;" vertex="1" parent="iMzCxJ1BoP2q3Y8NNwYc-66">
          <mxGeometry width="35.66" height="35.66" as="geometry" />
        </mxCell>
        <mxCell id="iMzCxJ1BoP2q3Y8NNwYc-63" value="" style="shape=image;verticalLabelPosition=bottom;labelBackgroundColor=default;verticalAlign=top;aspect=fixed;imageAspect=0;image=data:image/png,iVBORw0KGgoAAAANSUhEUgAAAMgAAADICAYAAACtWK6eAAAAAXNSR0IArs4c6QAAF9hJREFUeF7tnQuwHUWZx79vzkkUQsQFEY2Iecx8cy7RKMmqoBgjiIqCDx664gtR8Yks7vreWlFLXXEfyIKuPBRxVUQIW66AoihKseqWgA+Sm/nmJJE1YPlYXDchuPfmzrfVcS4Vwr3nzDnTPT1zzjdVqSR1u/9f97/7d3v6nH4g6KMOqAPzOoDqjTqgDszvgAKivUMd6OGAAqLdQx1QQLQPqAPDOaAjyHC+aa4xcUABGZOGLlDNVhiGixYsWLBoampqUavVWhQEwSKTT0R2zMzM3DszM7Njn332uXfjxo07CuiNRBIFZCSasXglwjA8HBEngiBYISLLAWBF/mdJcZXdKbcCwJb8760iYv5s6na7tw+oU+vkCkitm6dc4SYmJh69a9eu1UEQrBaRIwHgGQCwXznVvrnN6HIzIv4gy7Lb2u32bZOTk7/qm6umCRSQmjbMsMVasmTJvosXLz5RRF4CACcOq2M533pEvGb79u3r77777p2WtZ3KKSBO7a1OnIieISInIqIB43HVRR4o0p0icg0irmfmmwfK6SmxAuLJeBthwzB8SKvVOlVETgWAZ9vQrEoDEW8AgMuTJPliVTGHiaOADOOa5zwTExPRzMyMgcL8Ic/FKRv+dkS8vN1uX75hw4Z7yorZzq+A2HbUod6yZcsOXrhw4ftE5AwAeKjDUD6kfykiF6Rpeq6P4PPFVEDq1Bo9ykJErwaA94/AiNHP8VsQ8dwkSb7WL2EVP1dAqnC5RIwwDFcGQWDAeHkJmcZlFZHPBkFgQEl8Fl4B8el+n9hRFL0dET8AAAfUuJgui/Y7ADiHmS90GaSXtgLiy/ner1MdAPgQAJxSw+L5KNJl09PT79m6deuvqw6ugFTteJ94RPT6HI5H16xoXosjIncAwHvSNL22yoIoIFW63R+OywDgNTUqUh2LYl65PlhVwRSQqpzuD8e3AeCYmhSn7sW4jJlfW0UhFZAqXO4/Gf85Ij6+BkVpTBFE5KY0TZ/lusAKiGuH+48cZuL5SM/FaGr4XzDzMpeFV0BcutsfDvEYfmRCM7OzfuxMeGTcd1QRIroNAA53JD9usrcz82oXlVZAXLjaf+S4BABe5yH0KIe8lJnNR+RWHwXEqp39xaIoOhcR39k/paYY1AER+USapu8aNF+v9AqITTf7jxxm2cg5FYYcx1BWvydRQCrqQkT0MgC4oqJwYx1GRI639Y27AlJBV4rjeJWIXA8Ag54cUkHpHhQiA4B7ROT3iGg2MJk+cmC+YPLPfBRo0JhmWcquXbuebWPtlgIyqPsDpl+zZs2C7du3fwMAjh4wq+vkv0XEr2dZdm2r1fqFiNwzPT19z5YtW/7QI3AQhuGBQRAciIgHZlm2DhFfCABPcV3YIfStfNuugAzh/CBZiOgCAHjrIHlcpUXE20Tkm1mW3dDtdm+yFWfFihVhEATHIeJxAGD+1OV5W9ml8gqIw6aMosicMnK1wxBFpb8gIhemafqjohmGTWdgabfbp4nI2wBg/2F1LOX7HSIeVWbTlQJiqSXmkonj+CYReabDEP2kbxSR89I0/Xq/hLZ/TkRmT4uBxOvoaXYmpmk69HdOCojtnpHrRVF0BiJ+xpF8P9nJHIyL+iV0/fMwDI9otVpn5kcTuQ43pz4ivmjYPe4KiIMmO+yww/bbtWvXDwFgpQP5fpLn7Nq167w+k+1+GtZ/TkTHiciHEXGNdfH+grcw81H9kz04hQIyjGt98hDR+wDgIw6ke0maj2ffxMwXVxy3cLiVK1ceMDU19bn8k6/C+WwkFJF3D3OkkAJiw/09NMyB0TMzMz+u+DsPc6bUKVVMwm3YFUXRpxDxzTa0BtD45YIFC5406OF0CsgADhdJSkRVLyf5ITObk9sb9cRx/AoR+dcqC42IZydJct4gMRWQQdzqk9bD6GF13ZFFKwpJmVeu6enp/y6U2E6igZfFKyB2jN+tUvHocTEzmyNIG/0Q0WMAYFtVlUDEVw5yYLYCYqllKh49rmPmF1gquneZMAzXBUHw3SoKYk6VT5LkuUVjKSBFneqTLoqiMxHxfEtyvWR+unPnziO3bdt2XwWxKguRnwdW1Sdwa4veT6KAWOoCRHRdBeuQzNKJY5Ik+ZmlYtdKJoqijyOi1Q1Pc1Uw/xL17CKVV0CKuNQnjVl/1Gq1UgtSPSVE5KQ0Tde7juNTP4qiryHiCY7LcOeOHTsOK3IdnAJioSWqeL1CxH9PksQsLR/pJ4qiY/Pbp5zWExFflSRJ34+ZFRALzVDF65WInOBj0aEFewaWIKLPA4C5D8XlY+5JPKlfAAWkn0N9ft7pdJZmWWbuDHf2jMvoMWtgHMd/LiJmaX7gzNQ/CR/CzHf1iqGAlGyBKIpOQ8TPlZTpN/cYm9Fj1ogois5DxLNc+mquyWbmaxQQhy4TkYHjNFchxm30mPUxDMMVQRCYUcTsh3fyiMjH0zR9jwLixN4/iRKReb1a6irEOM099vawgpUJ32XmnmcF6CtWiZ49MTHx+JmZmZ+XkOiX9S5mPhQAzFL2sXuiKHoqIpp9Na6ee5l5Px1BHNkbRdFZiDjQ6tABi/IFZnb9ac6ARao2OREZQJ7qKmqWZWu63a45J3nOR0eQEs7HcfwvIvLGEhL9sr6GmS/vl2iUf+76NctsBU7T9MsKiINeREQ3AMCxDqSNZIaID0+SZLsj/UbIdjodyrLM5VXQ72fmjyogDroDEZnlJaEDaSP5LWZ+jiPtRsk6fs26hJnfoIA46BJEtAsAWg6kARHfkiTJp11oN00zvy/+k47KfSMzP1sBsezu8uXLD22323dalr1frt/k0VXcOuo6/jRrKzMvV0Ast7zrTT7T09OPsnH4suVqe5FzvVq61xVu+inWkE0eRdELzOHPQ2bvl22amRf2SzQuP3e9d73dbi/euHHjjrn8VECG7GWO7/twfnvrkNX2lo2InF142mu0VkCGbPI4jk8XkUuHzN4v29AnAfYTburPicicfnKAi/JnWRZ2u93NOoJYdNfxJytfYea/sFjcxku5/EgdEZ843zZmHUGG7DqOjxf9R2b+qyGLNpLZXH4XEgTB0zdt2vQfOoJY7DpEZJZJf8yi5J5SCshexiogjnqaK9k4jt8sIp9ypH8FM7/ckXYjZaMoYkSMHBX+Scz8Ux1BLLobRdGpiPhFi5J7Sn2fmX1evOOoWsPLEtFvAeARwyvMn3NmZibavHlzVwGx6K7j70E2M7OrNV4WXahOiohmXO1Rb7VaSyYnJ3+lgFhsTyIyF7LcbFFyT6n7mHlfR9qNk12+fPn+7Xb7f1wVPMuy/bvd7v8qIBYd7nQ6T8iyzNkJhwsWLDhw0LssLFavVlJxHC8TkS2uCsXMbQAwI9SDHv2Yd0jXXS9WbLVaT5icnLxjyOKNVLZOp7MmyzJzKZGL525mNifMz/koIENa7nrYF5GT0zStwxXSQzpkL1sURSch4lX2FB+gdDMzr1VAHLjrcn2QOWsrSZLTHRS7cZJxHH9WRF7rqOCXMfO82jqClHCdiMxm/8NLSPTK+ltmfqQj7UbJEtFvAOAgF4VGxL9NkuTDOoI4cJeILgGAoS+p71ekLMue1e12b+qXbpR/7nrfjYi8Ik3TLykgDnoREb0VAC5wID0r+TFmNldKj+1DROZAhfe6MiDLstXdbvd2BcSBw65/uyHibUmSrHFQ9MZIxnF8q4isdlTgHcy8uJe2zkFKOB+G4UFBEJj3Y2ePiBzRlPvPbZvgeC+6Ke71zPx8BcR2y+2hR0QbAWDCYYhLmfn1DvVrK01E5tC8V7kqYL8JuomrI0hJ94noSgA4paRMz+yIeFSSJLe4jFE37SiKjjcn27ssl4gcn6bptTqCOHTZ9dGYu3+LIX4pSZJXOKxG7aSJ6NsAcIzLgvVapDgbV0eQki1QwXvy7hKKyLFpmppOM/JPFEVnIOJnHFdUr2BzbPD98i53u+1Rh2uY+cSq6uQrTr6E5weO53VmVNZLPKtq5Cpes/JRZOTXZ1XkpV4DXRUcJk5Vr1kAsB0RX5wkyXeqrF9VsYjIHCJ9ket4InJemqZnF4mjc5AiLhVIU9FrlinJnVmWrZpvg0+BotYySf5Lxpws4vpmW1P/tcxcaLObAmKpu1T0ajBb2p8ws6tFkpYcGUyGiP4LAB47WK6hUn+bmQvf6aKADOXxgzNV+Jq1O7iIfDNN0+dZKr5XGSIyk/IjqigEIp6eJEnha7sVEIutQkTmS6eeSxcshjNS5zDzBy1rVipX8cjL+evp/xWtpAJS1KkC6YjoJQCwvkBSm0kuZuYzbApWpUVEZkI+7+1ODsox8C8UBcRyK1TxDfAcRb5u586dJ2/btu0+y9VxInfIIYfss++++5ottFWOtn9stVqrJicnzbV5hR8FpLBVxRIS0YsB4Jpiqa2m+ikivnq+Q5itRiohFsfxKhExixCfWEJm4KyIeH6SJGcNmlEBGdSxAumJyHyEaM7Nqvr5nbmWOk3Tql/zCtUziqIT8yUkTk5I7FEInp6eXjvMjV0KSKGmHSxRp9N5bpZl3xgsl9XU15hzg+uydsuszA2C4AwROcFqLYuLDX3fvAJS3OSBUhLR9wHgGQNlspzYrAIGgE/5WipfAzCMo19m5lOHtVYBGda5PvmIKKvRfptLReTiinYmBlEUPd/ziDHbOvdkWba22+1uGLaZFZBhneuRz+X96SWLazqKWcf1DWa+rqTW/dnjOF4sIuYjbnPf+NEAMO9JhbZiFtERkbPSND2/SNr50iggZdybIy8RTQHAAsuyLuTMnX83IOL6IAg2BUFwd9GzgJctW3Zwq9V6TKvVemoOhtnYVMUaqkF8+Cozv3SQDHOlVUDKOrhHfiL6IwA8xKJk1VLme5S7AeCu/G/zb/OYEeGQ/G/z77r/AjBXGRzNzJvKGqiAlHUwz09EOwFgH0tyKlPOgTcwsznUr/SjgJS2EICIzCX0iyxIqUR5Bz7PzKeVl/mTggJS0kki2g4A+5WU0ex2HLiRmc0HBdYeBaSElUT0BwB4WAkJzWrJARG5I03TJ1iSu19GARnSUSL6PQA8fMjsms2uA79h5oPtSuor1tB+EpH5iPSAoQU0o1UHmNnZL3pnwlYdqJGYy+uIa1TNphTldmZ2dbC1TtIH7QVE9GsA0EttBjXOTfpKzizWEaRg4xGR+fLpUQWTazKHDojIJ9I0fZfDEDpJH8RcIjLfLC8ZJI+mdebAwNtmy5RER5A+7hHRL/NlFmV81rzlHTDLXt7BzF8pL1VcQQHp4VUcx3eKyKHF7dSUjhz4DiKe7WM7sQIyT4sS0VYAWOqowfvKIuJLRSQCgLfUZfl430K7SXDh4sWLz7711lun3cj3VlVA5vCHiLYAwDIfDWJiGjiSJPmq+Xen03maiLxVRIbeFeerHmXiIuL3siw73/f+egVkr1Ykoi4ArCjTuGXy7gnHnjpxHJ8uImcCwJPK6Dcg7wYRMWA4P8S6iBcKyB4uRVHEiGhea7w888ExWxgieoSIvNO8jzdgT8agHppJ+IXtdvv8jRs3mtXRtXgUkLwZiMhsrol9tUo/OPYaTZ5uQAGAF/kqr8W4BoyLWq3WRZOTk+a7plo9Cgjs3s/h+qbano0+CBx7ChGROXzNHFRn9oNXehCbhV5cazBm6zf2gBDRHQCw0kKDDyUxLBx7ByMic4znLCxVH8w2SN2vF5Hr2+32VXUcMfauyFgDQkQ/AwDrewiK9hZbcOw1qhg4zIhiYDGnO9Zhv8puKLIsu37z5s3mQ5DGPGMLCBH9xOdriQs49u51q1atWjQ1NXVUlmVHiMiRiHhkRcD8AgBuEpHvtVqtmzZt2mT+38hnLAEhotsAwNsNTVXAMV9vDMPwCEQ8yvwBgMcBgBlxDhryNJYZADBfqG5FxC1Zlk222+0bJycnzWvrSDxjB0gURT9GxDW+Ws8nHL3qHIbhwxBxFhYDzO5/I+ICEdkRBMEOEbnX/Nv8nWXZli1btphr00b6GStAiOg/AeDJvlq0rnD48qMJcccGECL6EQA8xVejKBy+nC8XdywAqfKSyLmaQ+Eo10l95h55QIjoFgB4mi+TFQ5fztuJO9KAeLzpaXfrKBx2OqlPlZEFhIi+BwBrfZmrcPhy3m7ckQQkiqLvIuI6u1YVV1M4intV95QjBwgR3Zhf4uLFe4XDi+3Ogo4UIET0rfyWI2eG9RJWOLzY7jToyAASx/E3ReQ5Tt3qIa5w+HLebdyRAISIrgeA57m1an51hcOX8+7jNh4QIroWAMxeCC+PwuHF9sqCNhoQIvo6ALygMrf2CqRw+HK+uriNBSSKoq8h4gnVWfXASAqHL+erjdtIQIjo33weWKBwVNtJfUZrHCBEtD7fUurFN4XDi+3egjYKkDiOrxKRk7y5lQdWSHy3QHXxGwMIEV0JAKdUZ03vSApJXVrCbTkaAUjd4JhtEoXEbeesg3rtAakrHApJHbqv+zLUGpC6w6GQuO+gviPUFpCmwKGQ+O7CbuPXEpCmwaGQuO2kPtVrB0hT4VBIfHZjd7FrBUjT4VBI3HVUX8q1AWRU4FBIfHVlN3FrAciowaGQuOmsPlS9AzKqcCgkPrqz/ZheARl1OPLmupKZX2a/6VSxCge8ATImcHyZmcfq+uYqOm2VMbwAMg5wiMgX0zR9ZZWNqbHsO1A5IL7hEJGrEPFk+1Y+QPFyZn6N4xgqX4EDlQJSAzhOTdP0CiK62tWmK0T8XJIkp1fQdhqiAgcqA8Q3HADwamb+gvF03bp17bvuumu9gz3tlzDzGypoNw1RkQOVAOIbDkR8XZIkn93T06VLlz504cKFZiSxdWTQRcz8xoraTcNU5IBzQHzDISJvStP0M3P5aW6Bve+++65GxOeW8VtEPp2m6VvKaGjeejrgFJAawPH2NE3/uZf15vLKIAjMQRDHDNlEFzDzmUPm1Ww1d8AZIL7hAIC/ZuZ/KOL/ypUrD5iamjIjyUBXJojIJ9M0/csiMTRNMx1wAkgN4HgvM//dIE0ShuFB+Uhi7g8v8vwTM7+jSEJN01wHrANSAzg+wMwfGqZJJiYmHp1l2dUicmSv/Ij490mSvHOYGJqnWQ5YByQMw5ODIDBH9FjXLmjthizLXtrtdjcWTP+AZGEYHhIEgfl0a84ro0Xk3DRN3z2MtuZpngNOOnEURSciooGk5cmSUpBMTEw8Lsuy9SKyeq/yf4yZ3+epThrWgwNOADH1IKKXAICBpO2hXiZkKUjCMFyRjyRPNGKI+JEkSf7GU100rCcHnAFi6hPH8YtExECy0FP9SkHS6XTIjCQAcDUzf8BTHTSsRwecApJD8sIckod4qmcpSMIwPGzY+Yyn+mpYiw44B8SUNYqi4/M5yT4Wyz6IVClIBgmkaUfLgUoAySExN0FdiYj7erJQIfFkfJPDVgZIPnE/Lp+47+fJNIXEk/FNDVspIPmc5Hn5nGSxJ9MUEk/GNzFs5YAYk8IwfE7+ZeL+nkxTSDwZ37SwXgDJ5yTH5nOSh3syTSHxZHyTwnoDJJ+TmCXm5nuSAzyZppB4Mr4pYb0Cks9JjhaRrwDAIzyZdg4zf9BTbA1bcwe8A2L86XQ667IsMyPJQRX7pXBUbHjTwtUCkHzi/swgCMxIcnBFJiocFRnd5DC1ASSfuK9FRAPJoxybqnA4NnhU5GsFSD5xNzv6DCRLHJmscDgydhRlawdIPnF/ej5xf4xl0xUOy4aOulwtAckn7kdmWWZGksdaagSFw5KR4yRTW0DyifsRZk6CiIeWbBSFo6SB45q91oDkcxKzN9yMJEuHbCSFY0jjNJu/gxUG8p6InpxDsmygjAAKx4CGafIHOlD7EWS2uJ1OZ00+J1lRsBEVjoJGabL5HWgMIPmcZHX+ZWLYp1EVDu31VhxoFCA5JIcHQXCFOThlHgcUDitdQ0WMA40DJJ+4m6N4zMQ93qsZFQ7t11YdaCQgxoE4jleJiBlJJnJHFA6rXUPFGjuCzDbdxMTE42dmZsxIYq5a1iXr2qetO9DYEWTWiTAMV3a73Q3WnVFBdaCpcxBtOXWgKgcaP4JUZZTGGU8HFJDxbHetdUEHFJCCRmmy8XRAARnPdtdaF3RAASlolCYbTwcUkPFsd611QQcUkIJGabLxdEABGc9211oXdOD/AdkR3DLf4+BHAAAAAElFTkSuQmCC;fontFamily=Times New Roman;fontSize=16;" vertex="1" parent="iMzCxJ1BoP2q3Y8NNwYc-66">
          <mxGeometry x="36" width="35.66" height="35.66" as="geometry" />
        </mxCell>
        <mxCell id="iMzCxJ1BoP2q3Y8NNwYc-64" value="" style="shape=image;verticalLabelPosition=bottom;labelBackgroundColor=default;verticalAlign=top;aspect=fixed;imageAspect=0;image=data:image/png,iVBORw0KGgoAAAANSUhEUgAAAMgAAADICAYAAACtWK6eAAAAAXNSR0IArs4c6QAAF9hJREFUeF7tnQuwHUWZx79vzkkUQsQFEY2Iecx8cy7RKMmqoBgjiIqCDx664gtR8Yks7vreWlFLXXEfyIKuPBRxVUQIW66AoihKseqWgA+Sm/nmJJE1YPlYXDchuPfmzrfVcS4Vwr3nzDnTPT1zzjdVqSR1u/9f97/7d3v6nH4g6KMOqAPzOoDqjTqgDszvgAKivUMd6OGAAqLdQx1QQLQPqAPDOaAjyHC+aa4xcUABGZOGLlDNVhiGixYsWLBoampqUavVWhQEwSKTT0R2zMzM3DszM7Njn332uXfjxo07CuiNRBIFZCSasXglwjA8HBEngiBYISLLAWBF/mdJcZXdKbcCwJb8760iYv5s6na7tw+oU+vkCkitm6dc4SYmJh69a9eu1UEQrBaRIwHgGQCwXznVvrnN6HIzIv4gy7Lb2u32bZOTk7/qm6umCRSQmjbMsMVasmTJvosXLz5RRF4CACcOq2M533pEvGb79u3r77777p2WtZ3KKSBO7a1OnIieISInIqIB43HVRR4o0p0icg0irmfmmwfK6SmxAuLJeBthwzB8SKvVOlVETgWAZ9vQrEoDEW8AgMuTJPliVTGHiaOADOOa5zwTExPRzMyMgcL8Ic/FKRv+dkS8vN1uX75hw4Z7yorZzq+A2HbUod6yZcsOXrhw4ftE5AwAeKjDUD6kfykiF6Rpeq6P4PPFVEDq1Bo9ykJErwaA94/AiNHP8VsQ8dwkSb7WL2EVP1dAqnC5RIwwDFcGQWDAeHkJmcZlFZHPBkFgQEl8Fl4B8el+n9hRFL0dET8AAAfUuJgui/Y7ADiHmS90GaSXtgLiy/ner1MdAPgQAJxSw+L5KNJl09PT79m6deuvqw6ugFTteJ94RPT6HI5H16xoXosjIncAwHvSNL22yoIoIFW63R+OywDgNTUqUh2LYl65PlhVwRSQqpzuD8e3AeCYmhSn7sW4jJlfW0UhFZAqXO4/Gf85Ij6+BkVpTBFE5KY0TZ/lusAKiGuH+48cZuL5SM/FaGr4XzDzMpeFV0BcutsfDvEYfmRCM7OzfuxMeGTcd1QRIroNAA53JD9usrcz82oXlVZAXLjaf+S4BABe5yH0KIe8lJnNR+RWHwXEqp39xaIoOhcR39k/paYY1AER+USapu8aNF+v9AqITTf7jxxm2cg5FYYcx1BWvydRQCrqQkT0MgC4oqJwYx1GRI639Y27AlJBV4rjeJWIXA8Ag54cUkHpHhQiA4B7ROT3iGg2MJk+cmC+YPLPfBRo0JhmWcquXbuebWPtlgIyqPsDpl+zZs2C7du3fwMAjh4wq+vkv0XEr2dZdm2r1fqFiNwzPT19z5YtW/7QI3AQhuGBQRAciIgHZlm2DhFfCABPcV3YIfStfNuugAzh/CBZiOgCAHjrIHlcpUXE20Tkm1mW3dDtdm+yFWfFihVhEATHIeJxAGD+1OV5W9ml8gqIw6aMosicMnK1wxBFpb8gIhemafqjohmGTWdgabfbp4nI2wBg/2F1LOX7HSIeVWbTlQJiqSXmkonj+CYReabDEP2kbxSR89I0/Xq/hLZ/TkRmT4uBxOvoaXYmpmk69HdOCojtnpHrRVF0BiJ+xpF8P9nJHIyL+iV0/fMwDI9otVpn5kcTuQ43pz4ivmjYPe4KiIMmO+yww/bbtWvXDwFgpQP5fpLn7Nq167w+k+1+GtZ/TkTHiciHEXGNdfH+grcw81H9kz04hQIyjGt98hDR+wDgIw6ke0maj2ffxMwXVxy3cLiVK1ceMDU19bn8k6/C+WwkFJF3D3OkkAJiw/09NMyB0TMzMz+u+DsPc6bUKVVMwm3YFUXRpxDxzTa0BtD45YIFC5406OF0CsgADhdJSkRVLyf5ITObk9sb9cRx/AoR+dcqC42IZydJct4gMRWQQdzqk9bD6GF13ZFFKwpJmVeu6enp/y6U2E6igZfFKyB2jN+tUvHocTEzmyNIG/0Q0WMAYFtVlUDEVw5yYLYCYqllKh49rmPmF1gquneZMAzXBUHw3SoKYk6VT5LkuUVjKSBFneqTLoqiMxHxfEtyvWR+unPnziO3bdt2XwWxKguRnwdW1Sdwa4veT6KAWOoCRHRdBeuQzNKJY5Ik+ZmlYtdKJoqijyOi1Q1Pc1Uw/xL17CKVV0CKuNQnjVl/1Gq1UgtSPSVE5KQ0Tde7juNTP4qiryHiCY7LcOeOHTsOK3IdnAJioSWqeL1CxH9PksQsLR/pJ4qiY/Pbp5zWExFflSRJ34+ZFRALzVDF65WInOBj0aEFewaWIKLPA4C5D8XlY+5JPKlfAAWkn0N9ft7pdJZmWWbuDHf2jMvoMWtgHMd/LiJmaX7gzNQ/CR/CzHf1iqGAlGyBKIpOQ8TPlZTpN/cYm9Fj1ogois5DxLNc+mquyWbmaxQQhy4TkYHjNFchxm30mPUxDMMVQRCYUcTsh3fyiMjH0zR9jwLixN4/iRKReb1a6irEOM099vawgpUJ32XmnmcF6CtWiZ49MTHx+JmZmZ+XkOiX9S5mPhQAzFL2sXuiKHoqIpp9Na6ee5l5Px1BHNkbRdFZiDjQ6tABi/IFZnb9ac6ARao2OREZQJ7qKmqWZWu63a45J3nOR0eQEs7HcfwvIvLGEhL9sr6GmS/vl2iUf+76NctsBU7T9MsKiINeREQ3AMCxDqSNZIaID0+SZLsj/UbIdjodyrLM5VXQ72fmjyogDroDEZnlJaEDaSP5LWZ+jiPtRsk6fs26hJnfoIA46BJEtAsAWg6kARHfkiTJp11oN00zvy/+k47KfSMzP1sBsezu8uXLD22323dalr1frt/k0VXcOuo6/jRrKzMvV0Ast7zrTT7T09OPsnH4suVqe5FzvVq61xVu+inWkE0eRdELzOHPQ2bvl22amRf2SzQuP3e9d73dbi/euHHjjrn8VECG7GWO7/twfnvrkNX2lo2InF142mu0VkCGbPI4jk8XkUuHzN4v29AnAfYTburPicicfnKAi/JnWRZ2u93NOoJYdNfxJytfYea/sFjcxku5/EgdEZ843zZmHUGG7DqOjxf9R2b+qyGLNpLZXH4XEgTB0zdt2vQfOoJY7DpEZJZJf8yi5J5SCshexiogjnqaK9k4jt8sIp9ypH8FM7/ckXYjZaMoYkSMHBX+Scz8Ux1BLLobRdGpiPhFi5J7Sn2fmX1evOOoWsPLEtFvAeARwyvMn3NmZibavHlzVwGx6K7j70E2M7OrNV4WXahOiohmXO1Rb7VaSyYnJ3+lgFhsTyIyF7LcbFFyT6n7mHlfR9qNk12+fPn+7Xb7f1wVPMuy/bvd7v8qIBYd7nQ6T8iyzNkJhwsWLDhw0LssLFavVlJxHC8TkS2uCsXMbQAwI9SDHv2Yd0jXXS9WbLVaT5icnLxjyOKNVLZOp7MmyzJzKZGL525mNifMz/koIENa7nrYF5GT0zStwxXSQzpkL1sURSch4lX2FB+gdDMzr1VAHLjrcn2QOWsrSZLTHRS7cZJxHH9WRF7rqOCXMfO82jqClHCdiMxm/8NLSPTK+ltmfqQj7UbJEtFvAOAgF4VGxL9NkuTDOoI4cJeILgGAoS+p71ekLMue1e12b+qXbpR/7nrfjYi8Ik3TLykgDnoREb0VAC5wID0r+TFmNldKj+1DROZAhfe6MiDLstXdbvd2BcSBw65/uyHibUmSrHFQ9MZIxnF8q4isdlTgHcy8uJe2zkFKOB+G4UFBEJj3Y2ePiBzRlPvPbZvgeC+6Ke71zPx8BcR2y+2hR0QbAWDCYYhLmfn1DvVrK01E5tC8V7kqYL8JuomrI0hJ94noSgA4paRMz+yIeFSSJLe4jFE37SiKjjcn27ssl4gcn6bptTqCOHTZ9dGYu3+LIX4pSZJXOKxG7aSJ6NsAcIzLgvVapDgbV0eQki1QwXvy7hKKyLFpmppOM/JPFEVnIOJnHFdUr2BzbPD98i53u+1Rh2uY+cSq6uQrTr6E5weO53VmVNZLPKtq5Cpes/JRZOTXZ1XkpV4DXRUcJk5Vr1kAsB0RX5wkyXeqrF9VsYjIHCJ9ket4InJemqZnF4mjc5AiLhVIU9FrlinJnVmWrZpvg0+BotYySf5Lxpws4vpmW1P/tcxcaLObAmKpu1T0ajBb2p8ws6tFkpYcGUyGiP4LAB47WK6hUn+bmQvf6aKADOXxgzNV+Jq1O7iIfDNN0+dZKr5XGSIyk/IjqigEIp6eJEnha7sVEIutQkTmS6eeSxcshjNS5zDzBy1rVipX8cjL+evp/xWtpAJS1KkC6YjoJQCwvkBSm0kuZuYzbApWpUVEZkI+7+1ODsox8C8UBcRyK1TxDfAcRb5u586dJ2/btu0+y9VxInfIIYfss++++5ottFWOtn9stVqrJicnzbV5hR8FpLBVxRIS0YsB4Jpiqa2m+ikivnq+Q5itRiohFsfxKhExixCfWEJm4KyIeH6SJGcNmlEBGdSxAumJyHyEaM7Nqvr5nbmWOk3Tql/zCtUziqIT8yUkTk5I7FEInp6eXjvMjV0KSKGmHSxRp9N5bpZl3xgsl9XU15hzg+uydsuszA2C4AwROcFqLYuLDX3fvAJS3OSBUhLR9wHgGQNlspzYrAIGgE/5WipfAzCMo19m5lOHtVYBGda5PvmIKKvRfptLReTiinYmBlEUPd/ziDHbOvdkWba22+1uGLaZFZBhneuRz+X96SWLazqKWcf1DWa+rqTW/dnjOF4sIuYjbnPf+NEAMO9JhbZiFtERkbPSND2/SNr50iggZdybIy8RTQHAAsuyLuTMnX83IOL6IAg2BUFwd9GzgJctW3Zwq9V6TKvVemoOhtnYVMUaqkF8+Cozv3SQDHOlVUDKOrhHfiL6IwA8xKJk1VLme5S7AeCu/G/zb/OYEeGQ/G/z77r/AjBXGRzNzJvKGqiAlHUwz09EOwFgH0tyKlPOgTcwsznUr/SjgJS2EICIzCX0iyxIqUR5Bz7PzKeVl/mTggJS0kki2g4A+5WU0ex2HLiRmc0HBdYeBaSElUT0BwB4WAkJzWrJARG5I03TJ1iSu19GARnSUSL6PQA8fMjsms2uA79h5oPtSuor1tB+EpH5iPSAoQU0o1UHmNnZL3pnwlYdqJGYy+uIa1TNphTldmZ2dbC1TtIH7QVE9GsA0EttBjXOTfpKzizWEaRg4xGR+fLpUQWTazKHDojIJ9I0fZfDEDpJH8RcIjLfLC8ZJI+mdebAwNtmy5RER5A+7hHRL/NlFmV81rzlHTDLXt7BzF8pL1VcQQHp4VUcx3eKyKHF7dSUjhz4DiKe7WM7sQIyT4sS0VYAWOqowfvKIuJLRSQCgLfUZfl430K7SXDh4sWLz7711lun3cj3VlVA5vCHiLYAwDIfDWJiGjiSJPmq+Xen03maiLxVRIbeFeerHmXiIuL3siw73/f+egVkr1Ykoi4ArCjTuGXy7gnHnjpxHJ8uImcCwJPK6Dcg7wYRMWA4P8S6iBcKyB4uRVHEiGhea7w888ExWxgieoSIvNO8jzdgT8agHppJ+IXtdvv8jRs3mtXRtXgUkLwZiMhsrol9tUo/OPYaTZ5uQAGAF/kqr8W4BoyLWq3WRZOTk+a7plo9Cgjs3s/h+qbano0+CBx7ChGROXzNHFRn9oNXehCbhV5cazBm6zf2gBDRHQCw0kKDDyUxLBx7ByMic4znLCxVH8w2SN2vF5Hr2+32VXUcMfauyFgDQkQ/AwDrewiK9hZbcOw1qhg4zIhiYDGnO9Zhv8puKLIsu37z5s3mQ5DGPGMLCBH9xOdriQs49u51q1atWjQ1NXVUlmVHiMiRiHhkRcD8AgBuEpHvtVqtmzZt2mT+38hnLAEhotsAwNsNTVXAMV9vDMPwCEQ8yvwBgMcBgBlxDhryNJYZADBfqG5FxC1Zlk222+0bJycnzWvrSDxjB0gURT9GxDW+Ws8nHL3qHIbhwxBxFhYDzO5/I+ICEdkRBMEOEbnX/Nv8nWXZli1btphr00b6GStAiOg/AeDJvlq0rnD48qMJcccGECL6EQA8xVejKBy+nC8XdywAqfKSyLmaQ+Eo10l95h55QIjoFgB4mi+TFQ5fztuJO9KAeLzpaXfrKBx2OqlPlZEFhIi+BwBrfZmrcPhy3m7ckQQkiqLvIuI6u1YVV1M4intV95QjBwgR3Zhf4uLFe4XDi+3Ogo4UIET0rfyWI2eG9RJWOLzY7jToyAASx/E3ReQ5Tt3qIa5w+HLebdyRAISIrgeA57m1an51hcOX8+7jNh4QIroWAMxeCC+PwuHF9sqCNhoQIvo6ALygMrf2CqRw+HK+uriNBSSKoq8h4gnVWfXASAqHL+erjdtIQIjo33weWKBwVNtJfUZrHCBEtD7fUurFN4XDi+3egjYKkDiOrxKRk7y5lQdWSHy3QHXxGwMIEV0JAKdUZ03vSApJXVrCbTkaAUjd4JhtEoXEbeesg3rtAakrHApJHbqv+zLUGpC6w6GQuO+gviPUFpCmwKGQ+O7CbuPXEpCmwaGQuO2kPtVrB0hT4VBIfHZjd7FrBUjT4VBI3HVUX8q1AWRU4FBIfHVlN3FrAciowaGQuOmsPlS9AzKqcCgkPrqz/ZheARl1OPLmupKZX2a/6VSxCge8ATImcHyZmcfq+uYqOm2VMbwAMg5wiMgX0zR9ZZWNqbHsO1A5IL7hEJGrEPFk+1Y+QPFyZn6N4xgqX4EDlQJSAzhOTdP0CiK62tWmK0T8XJIkp1fQdhqiAgcqA8Q3HADwamb+gvF03bp17bvuumu9gz3tlzDzGypoNw1RkQOVAOIbDkR8XZIkn93T06VLlz504cKFZiSxdWTQRcz8xoraTcNU5IBzQHzDISJvStP0M3P5aW6Bve+++65GxOeW8VtEPp2m6VvKaGjeejrgFJAawPH2NE3/uZf15vLKIAjMQRDHDNlEFzDzmUPm1Ww1d8AZIL7hAIC/ZuZ/KOL/ypUrD5iamjIjyUBXJojIJ9M0/csiMTRNMx1wAkgN4HgvM//dIE0ShuFB+Uhi7g8v8vwTM7+jSEJN01wHrANSAzg+wMwfGqZJJiYmHp1l2dUicmSv/Ij490mSvHOYGJqnWQ5YByQMw5ODIDBH9FjXLmjthizLXtrtdjcWTP+AZGEYHhIEgfl0a84ro0Xk3DRN3z2MtuZpngNOOnEURSciooGk5cmSUpBMTEw8Lsuy9SKyeq/yf4yZ3+epThrWgwNOADH1IKKXAICBpO2hXiZkKUjCMFyRjyRPNGKI+JEkSf7GU100rCcHnAFi6hPH8YtExECy0FP9SkHS6XTIjCQAcDUzf8BTHTSsRwecApJD8sIckod4qmcpSMIwPGzY+Yyn+mpYiw44B8SUNYqi4/M5yT4Wyz6IVClIBgmkaUfLgUoAySExN0FdiYj7erJQIfFkfJPDVgZIPnE/Lp+47+fJNIXEk/FNDVspIPmc5Hn5nGSxJ9MUEk/GNzFs5YAYk8IwfE7+ZeL+nkxTSDwZ37SwXgDJ5yTH5nOSh3syTSHxZHyTwnoDJJ+TmCXm5nuSAzyZppB4Mr4pYb0Cks9JjhaRrwDAIzyZdg4zf9BTbA1bcwe8A2L86XQ667IsMyPJQRX7pXBUbHjTwtUCkHzi/swgCMxIcnBFJiocFRnd5DC1ASSfuK9FRAPJoxybqnA4NnhU5GsFSD5xNzv6DCRLHJmscDgydhRlawdIPnF/ej5xf4xl0xUOy4aOulwtAckn7kdmWWZGksdaagSFw5KR4yRTW0DyifsRZk6CiIeWbBSFo6SB45q91oDkcxKzN9yMJEuHbCSFY0jjNJu/gxUG8p6InpxDsmygjAAKx4CGafIHOlD7EWS2uJ1OZ00+J1lRsBEVjoJGabL5HWgMIPmcZHX+ZWLYp1EVDu31VhxoFCA5JIcHQXCFOThlHgcUDitdQ0WMA40DJJ+4m6N4zMQ93qsZFQ7t11YdaCQgxoE4jleJiBlJJnJHFA6rXUPFGjuCzDbdxMTE42dmZsxIYq5a1iXr2qetO9DYEWTWiTAMV3a73Q3WnVFBdaCpcxBtOXWgKgcaP4JUZZTGGU8HFJDxbHetdUEHFJCCRmmy8XRAARnPdtdaF3RAASlolCYbTwcUkPFsd611QQcUkIJGabLxdEABGc9211oXdOD/AdkR3DLf4+BHAAAAAElFTkSuQmCC;fontFamily=Times New Roman;fontSize=16;" vertex="1" parent="iMzCxJ1BoP2q3Y8NNwYc-66">
          <mxGeometry x="72" width="35.66" height="35.66" as="geometry" />
        </mxCell>
        <mxCell id="iMzCxJ1BoP2q3Y8NNwYc-77" value="" style="group;fillColor=default;" vertex="1" connectable="0" parent="1">
          <mxGeometry x="273" y="238" width="186" height="31" as="geometry" />
        </mxCell>
        <mxCell id="iMzCxJ1BoP2q3Y8NNwYc-73" value="" style="shape=flexArrow;endArrow=classic;html=1;rounded=0;labelBackgroundColor=default;strokeColor=default;fontFamily=Times New Roman;fontSize=16;fontColor=default;width=27.142857142857142;endSize=10.557142857142857;endWidth=18.91156462585034;movable=1;resizable=1;rotatable=1;deletable=1;editable=1;locked=0;connectable=1;fillColor=#F0F0F0;" edge="1" parent="iMzCxJ1BoP2q3Y8NNwYc-77">
          <mxGeometry width="50" height="50" relative="1" as="geometry">
            <mxPoint x="14" y="17" as="sourcePoint" />
            <mxPoint x="186" y="17" as="targetPoint" />
          </mxGeometry>
        </mxCell>
        <mxCell id="iMzCxJ1BoP2q3Y8NNwYc-70" value="&lt;font style=&quot;font-size: 16px;&quot;&gt;Send \(K_A\) and pieces&lt;/font&gt;" style="text;html=1;align=center;verticalAlign=middle;resizable=0;points=[];autosize=1;strokeColor=none;fillColor=none;fontFamily=Times New Roman;fontSize=16;" vertex="1" parent="iMzCxJ1BoP2q3Y8NNwYc-77">
          <mxGeometry width="176" height="31" as="geometry" />
        </mxCell>
        <mxCell id="iMzCxJ1BoP2q3Y8NNwYc-99" value="&lt;font face=&quot;Times New Roman&quot; style=&quot;font-size: 24px;&quot;&gt;&lt;i&gt;&lt;font color=&quot;#99411c&quot;&gt;&lt;b&gt;Step 5&lt;/b&gt;&lt;/font&gt;&lt;/i&gt; Result Decoding&lt;/font&gt;" style="text;html=1;align=center;verticalAlign=middle;resizable=0;points=[];autosize=1;strokeColor=none;fillColor=none;" vertex="1" parent="1">
          <mxGeometry x="87" y="310" width="245" height="41" as="geometry" />
        </mxCell>
        <mxCell id="iMzCxJ1BoP2q3Y8NNwYc-101" value="" style="endArrow=classic;html=1;rounded=0;fontFamily=Times New Roman;fontSize=16;" edge="1" parent="1">
          <mxGeometry width="50" height="50" relative="1" as="geometry">
            <mxPoint x="75" y="178" as="sourcePoint" />
            <mxPoint x="149" y="178" as="targetPoint" />
          </mxGeometry>
        </mxCell>
        <mxCell id="iMzCxJ1BoP2q3Y8NNwYc-94" value="" style="rounded=0;whiteSpace=wrap;html=1;fontFamily=Times New Roman;fontSize=16;fontColor=default;fillColor=#FF7F36;strokeColor=none;shadow=0;glass=0;fillStyle=auto;" vertex="1" parent="1">
          <mxGeometry x="468" y="233.66000000000003" width="36" height="11" as="geometry" />
        </mxCell>
        <mxCell id="iMzCxJ1BoP2q3Y8NNwYc-95" value="" style="rounded=0;whiteSpace=wrap;html=1;fontFamily=Times New Roman;fontSize=16;fontColor=default;fillColor=#FFE354;strokeColor=none;" vertex="1" parent="1">
          <mxGeometry x="468" y="250.16000000000003" width="36" height="11" as="geometry" />
        </mxCell>
        <mxCell id="iMzCxJ1BoP2q3Y8NNwYc-96" value="" style="rounded=0;whiteSpace=wrap;html=1;fontFamily=Times New Roman;fontSize=16;fontColor=default;fillColor=#9662F0;strokeColor=none;shadow=0;glass=0;fillStyle=auto;" vertex="1" parent="1">
          <mxGeometry x="468" y="266.66" width="36" height="11" as="geometry" />
        </mxCell>
        <mxCell id="iMzCxJ1BoP2q3Y8NNwYc-97" value="" style="rounded=0;whiteSpace=wrap;html=1;fontFamily=Times New Roman;fontSize=16;fontColor=default;fillColor=#F095DE;strokeColor=none;" vertex="1" parent="1">
          <mxGeometry x="468" y="283.16" width="36" height="11" as="geometry" />
        </mxCell>
        <mxCell id="iMzCxJ1BoP2q3Y8NNwYc-104" value="" style="group" vertex="1" connectable="0" parent="1">
          <mxGeometry x="579" y="212.34" width="72" height="11" as="geometry" />
        </mxCell>
        <mxCell id="iMzCxJ1BoP2q3Y8NNwYc-102" value="" style="rounded=0;whiteSpace=wrap;html=1;fontFamily=Times New Roman;fontSize=16;fontColor=default;fillColor=#FF7F36;strokeColor=none;shadow=0;glass=0;fillStyle=auto;" vertex="1" parent="iMzCxJ1BoP2q3Y8NNwYc-104">
          <mxGeometry x="36" width="36" height="11" as="geometry" />
        </mxCell>
        <mxCell id="iMzCxJ1BoP2q3Y8NNwYc-103" value="" style="rounded=0;whiteSpace=wrap;html=1;fontFamily=Times New Roman;fontSize=16;fontColor=default;fillColor=#fce245;strokeColor=none;" vertex="1" parent="iMzCxJ1BoP2q3Y8NNwYc-104">
          <mxGeometry width="36" height="11" as="geometry" />
        </mxCell>
        <mxCell id="iMzCxJ1BoP2q3Y8NNwYc-109" value="" style="group" vertex="1" connectable="0" parent="1">
          <mxGeometry x="579" y="279" width="72" height="11" as="geometry" />
        </mxCell>
        <mxCell id="iMzCxJ1BoP2q3Y8NNwYc-105" value="" style="rounded=0;whiteSpace=wrap;html=1;fontFamily=Times New Roman;fontSize=16;fontColor=default;fillColor=#f67e2a;strokeColor=none;" vertex="1" parent="iMzCxJ1BoP2q3Y8NNwYc-109">
          <mxGeometry width="36" height="11" as="geometry" />
        </mxCell>
        <mxCell id="iMzCxJ1BoP2q3Y8NNwYc-108" value="" style="rounded=0;whiteSpace=wrap;html=1;fontFamily=Times New Roman;fontSize=16;fontColor=default;fillColor=#f9e130;strokeColor=none;shadow=0;glass=0;fillStyle=auto;" vertex="1" parent="iMzCxJ1BoP2q3Y8NNwYc-109">
          <mxGeometry x="36" width="36" height="11" as="geometry" />
        </mxCell>
        <mxCell id="iMzCxJ1BoP2q3Y8NNwYc-86" value="&lt;font style=&quot;font-size: 18px;&quot;&gt;Enumerate combinations for comparison&lt;/font&gt;" style="text;html=1;align=center;verticalAlign=middle;resizable=0;points=[];autosize=1;strokeColor=none;fillColor=none;fontFamily=Times New Roman;fontSize=16;" vertex="1" parent="1">
          <mxGeometry x="470" y="311" width="311" height="34" as="geometry" />
        </mxCell>
        <mxCell id="iMzCxJ1BoP2q3Y8NNwYc-112" value="" style="endArrow=classic;html=1;rounded=0;labelBackgroundColor=default;strokeColor=default;fontFamily=Helvetica;fontSize=11;fontColor=default;" edge="1" parent="1">
          <mxGeometry width="50" height="50" relative="1" as="geometry">
            <mxPoint x="520" y="266.66" as="sourcePoint" />
            <mxPoint x="563" y="234" as="targetPoint" />
          </mxGeometry>
        </mxCell>
        <mxCell id="iMzCxJ1BoP2q3Y8NNwYc-113" value="" style="endArrow=classic;html=1;rounded=0;labelBackgroundColor=default;strokeColor=default;fontFamily=Helvetica;fontSize=11;fontColor=default;" edge="1" parent="1">
          <mxGeometry width="50" height="50" relative="1" as="geometry">
            <mxPoint x="520" y="266.66" as="sourcePoint" />
            <mxPoint x="563" y="292" as="targetPoint" />
          </mxGeometry>
        </mxCell>
        <mxCell id="iMzCxJ1BoP2q3Y8NNwYc-120" value="&lt;b&gt;...&lt;/b&gt;" style="text;html=1;align=center;verticalAlign=middle;resizable=0;points=[];autosize=1;strokeColor=none;fillColor=none;fontSize=11;fontFamily=Helvetica;fontColor=default;" vertex="1" parent="1">
          <mxGeometry x="601.5" y="248" width="27" height="25" as="geometry" />
        </mxCell>
        <mxCell id="iMzCxJ1BoP2q3Y8NNwYc-121" value="" style="shape=flexArrow;endArrow=classic;html=1;rounded=0;labelBackgroundColor=default;strokeColor=default;fontFamily=Helvetica;fontSize=11;fontColor=default;endSize=6.902857142857143;width=17.714285714285715;fillColor=#E3E3E3;" edge="1" parent="1">
          <mxGeometry width="50" height="50" relative="1" as="geometry">
            <mxPoint x="670" y="264.65999999999997" as="sourcePoint" />
            <mxPoint x="718" y="264.65999999999997" as="targetPoint" />
          </mxGeometry>
        </mxCell>
        <mxCell id="iMzCxJ1BoP2q3Y8NNwYc-122" value="Comparison&lt;br&gt;Results" style="text;html=1;align=center;verticalAlign=middle;resizable=0;points=[];autosize=1;strokeColor=none;fillColor=none;fontFamily=Times New Roman;fontSize=18;" vertex="1" parent="1">
          <mxGeometry x="702" y="261.15999999999997" width="106" height="55" as="geometry" />
        </mxCell>
        <mxCell id="iMzCxJ1BoP2q3Y8NNwYc-123" value="&lt;font face=&quot;Times New Roman&quot; style=&quot;font-size: 24px;&quot;&gt;&lt;i&gt;&lt;font color=&quot;#99411c&quot;&gt;&lt;b&gt;Step 4&lt;/b&gt;&lt;/font&gt;&lt;/i&gt;&amp;nbsp;Results Encoding&lt;/font&gt;" style="text;html=1;align=center;verticalAlign=middle;resizable=0;points=[];autosize=1;strokeColor=none;fillColor=none;" vertex="1" parent="1">
          <mxGeometry x="499" y="356" width="253" height="41" as="geometry" />
        </mxCell>
        <mxCell id="iMzCxJ1BoP2q3Y8NNwYc-124" value="" style="endArrow=none;dashed=1;html=1;rounded=0;strokeWidth=1.25;strokeColor=#677E99;fontFamily=Times New Roman;fontSize=16;" edge="1" parent="1">
          <mxGeometry width="50" height="50" relative="1" as="geometry">
            <mxPoint x="443" y="350" as="sourcePoint" />
            <mxPoint x="807" y="350" as="targetPoint" />
          </mxGeometry>
        </mxCell>
        <mxCell id="iMzCxJ1BoP2q3Y8NNwYc-126" value="" style="shape=image;verticalLabelPosition=bottom;labelBackgroundColor=default;verticalAlign=top;aspect=fixed;imageAspect=0;image=data:image/png,iVBORw0KGgoAAAANSUhEUgAAAMgAAADICAYAAACtWK6eAAAAAXNSR0IArs4c6QAAB+NJREFUeF7tnT1vlEcURmcXb1KmQEjIv4K/AVW6dF6hKBZFKFOgRNYrKwltJAqUSBG2U9LD70idOmlQPpQKvMaLSBUhsTtzeWbnXt9D65ln7pxnj4y/3p0V/kEAAu8lMIMNBCDwfgIIwqsDAhsIIAgvDwggCK8BCNgI8BnExo1dSQggSJKiuaaNAILYuLErCQEESVI017QRQBAbN3YlIYAgSYrmmjYCCGLjxq4kBBAkSdFc00YAQWzc2JWEAIIkKZpr2gggiI0bu5IQQJAkRXNNGwEEsXFjVxICCJKkaK5pI4AgNm7sSkIAQZIUzTVtBBDExo1dSQggSJKiuaaNAILYuLErCYF2Qe4+uJGEDde8igSePHzRcq1mQa4dHN2ez+bPWg5hLQQ8ELhcX955fXb8vGUWBGmhxdrQBBAkdH0M35sAgvQmTH5oAggSuj6G700AQXoTJj80AQQJXR/D9yaAIL0Jkx+aAIKEro/hexNAkN6EyQ9NAEFC18fwvQkgSG/C5Icm4EuQdfllNS+HoYkyfAgCi3X5sZRysG1Yf4KcTVuH3nYpPg6BbQQWy+kUQbZR4uNpCSBI2uq5eA0BBKmhxJq0BBAkbfVcvIYAgtRQYk1aAgiStnouXkMAQWoosSYtAQRJWz0XryGAIDWUWJOWAIKkrZ6L1xBAkBpKrElLAEHSVs/FawggSA0l1qQlgCBpq+fiNQQQpIYSa9ISQJC01XPxGgIIUkOJNWkJIEja6rl4DQEEqaHEmrQEECRt9Vy8hgCC1FBiTVoCCJK2ei5eQwBBaiixJi0BBElbPRevIYAgNZRYk5ZATkEODxcfnd/8VNn6+cnxU2UeWT4IpBVk8Wr/XFbBrPy6OpluyfIIckMAQRRVIIiCossMBFHUgiAKii4zEERRC4IoKLrMQBBFLQiioOgyA0EUtSCIgqLLDARR1IIgCoouMxBEUcsGQRbLo88VR5DxYQRWp8c/WxIQxELt3T0bBZkel1LuKY4hw0zgr9XpdN2yG0Es1BBEQW2XGQjSRPvwcLGrn6QvlnwGaeqmz2IEaeK6a0FmZdY0H4vlBFYnk+m/ufwXS1EF38VSUHSZgSCKWhBEQdFlBoIoakEQBUWXGQiiqAVBFBRdZiCIohYEUVB0mYEgiloQREHRZQaCKGpBEAVFlxlpBSl/72t/NvF00v0Jr8uXSs6hcgqSs2tubSCAIAZobMlDAEHydM1NDQQQxACNLXkIIEierrmpgQCCGKCxJQ8BBMnTNTc1EEAQAzS25CGAIHm65qYGAghigMaWPARyCvL2T25f7v8mq3le/uHp7jKaroLyCsLbH7h6IXodBkEUzfDbvAqKLjMQRFELgigousxAEEUtCKKg6DIDQRS1IIiCossMBFHUgiAKii4zEERRC4IoKLrMQBBFLduf7v6Z4hgyzATWPN29hd2un83L2x+0tNNjLQ+vbqKKIE24rsBiBGkqEUGacF2BxQjSVOIOBSn373/cNBuL+xB49OiVJZgv0i3U3t3Dd7EUFF1mIIiiFgRRUHSZgSCKWhBEQdFlBoIoakEQBUWXGQiiqAVBFBRdZiCIohYEUVB0mZFWkL2X+18pG7k4m75X5pHlg0BOQXywZ4oABBAkQEmMOI4Agoxjz8kBCCBIgJIYcRwBBBnHnpMDEECQACUx4jgCCDKOPScHIIAgAUpixHEEEGQce04OQABBApTEiOMI5BTkv78ovPllE/bZfL1p/epk+qEpj8UhCCQWZP9c1hC/rChD6S0IQRSNIIiCossMBFHUgiAKii4zEERRC4IoKLrMQBBFLQiioOgyA0EUtSCIgqLLDARR1IIgCoouMxBEUcsGQfaW0zeKI8j4MAIXp9O3lgQEsVB7d8/2tz+4pziGDDMBns3bhG6Hz+ZdLKfHhbc/aKqnw2IEaYKKIE24rsBiBGkqcYeC7C2Pvm6ajcVdCFycHn9nCeZrEAu1hq9BFPFkjCOAIAr2fJtXQdFlBoIoakEQBUWXGQiiqAVBFBRdZiCIohYEUVB0mYEgiloQREHRZUZmQf6QNTIrv69OpluyPILcEMgpiBv8DOKdAIJ4b4j5hhJAkKH4Odw7AQTx3hDzDSWAIEPxc7h3AgjivSHmG0oAQYbi53DvBBDEe0PMN5QAggzFz+HeCSCI94aYbygBBBmKn8O9E0AQ7w0x31ACCDIUP4d7J4Ag3htivqEEEGQofg73TgBBvDfEfEMJIMhQ/BzunQCCeG+I+YYSQJCh+DncO4G4gnzy5xfe4TJffAKLf6//VEo52HaTy/Xlnddnx8+3rfv/x2cti9+uvXZwdHs+mz9r3cd6CIwmgCCjG+B81wQQxHU9DDeaAIKMboDzXRNAENf1MNxoAggyugHOd00AQVzXw3CjCSDI6AY43zUBBHFdD8ONJoAgoxvgfNcEdiJIufvghmsKDAeBTQSePHzRAqj5V01awlkLgegEECR6g8zflQCCdMVLeHQCCBK9QebvSgBBuuIlPDoBBIneIPN3JYAgXfESHp0AgkRvkPm7EkCQrngJj04AQaI3yPxdCSBIV7yERyeAINEbZP6uBBCkK17CoxNAkOgNMn9XAgjSFS/h0QkgSPQGmb8rAQTpipfw6AQQJHqDzN+VAIJ0xUt4dAIIEr1B5u9KAEG64iU8OgEEid4g83clgCBd8RIenQCCRG+Q+bsSeAMjhWVQU+QGJgAAAABJRU5ErkJggg==;" vertex="1" parent="1">
          <mxGeometry x="730" y="220" width="48" height="48" as="geometry" />
        </mxCell>
        <mxCell id="iMzCxJ1BoP2q3Y8NNwYc-127" value="" style="shape=image;verticalLabelPosition=bottom;labelBackgroundColor=default;verticalAlign=top;aspect=fixed;imageAspect=0;image=data:image/png,iVBORw0KGgoAAAANSUhEUgAAAMgAAADICAYAAACtWK6eAAAAAXNSR0IArs4c6QAAB+NJREFUeF7tnT1vlEcURmcXb1KmQEjIv4K/AVW6dF6hKBZFKFOgRNYrKwltJAqUSBG2U9LD70idOmlQPpQKvMaLSBUhsTtzeWbnXt9D65ln7pxnj4y/3p0V/kEAAu8lMIMNBCDwfgIIwqsDAhsIIAgvDwggCK8BCNgI8BnExo1dSQggSJKiuaaNAILYuLErCQEESVI017QRQBAbN3YlIYAgSYrmmjYCCGLjxq4kBBAkSdFc00YAQWzc2JWEAIIkKZpr2gggiI0bu5IQQJAkRXNNGwEEsXFjVxICCJKkaK5pI4AgNm7sSkIAQZIUzTVtBBDExo1dSQggSJKiuaaNAILYuLErCYF2Qe4+uJGEDde8igSePHzRcq1mQa4dHN2ez+bPWg5hLQQ8ELhcX955fXb8vGUWBGmhxdrQBBAkdH0M35sAgvQmTH5oAggSuj6G700AQXoTJj80AQQJXR/D9yaAIL0Jkx+aAIKEro/hexNAkN6EyQ9NAEFC18fwvQkgSG/C5Icm4EuQdfllNS+HoYkyfAgCi3X5sZRysG1Yf4KcTVuH3nYpPg6BbQQWy+kUQbZR4uNpCSBI2uq5eA0BBKmhxJq0BBAkbfVcvIYAgtRQYk1aAgiStnouXkMAQWoosSYtAQRJWz0XryGAIDWUWJOWAIKkrZ6L1xBAkBpKrElLAEHSVs/FawggSA0l1qQlgCBpq+fiNQQQpIYSa9ISQJC01XPxGgIIUkOJNWkJIEja6rl4DQEEqaHEmrQEECRt9Vy8hgCC1FBiTVoCCJK2ei5eQwBBaiixJi0BBElbPRevIYAgNZRYk5ZATkEODxcfnd/8VNn6+cnxU2UeWT4IpBVk8Wr/XFbBrPy6OpluyfIIckMAQRRVIIiCossMBFHUgiAKii4zEERRC4IoKLrMQBBFLQiioOgyA0EUtSCIgqLLDARR1IIgCoouMxBEUcsGQRbLo88VR5DxYQRWp8c/WxIQxELt3T0bBZkel1LuKY4hw0zgr9XpdN2yG0Es1BBEQW2XGQjSRPvwcLGrn6QvlnwGaeqmz2IEaeK6a0FmZdY0H4vlBFYnk+m/ufwXS1EF38VSUHSZgSCKWhBEQdFlBoIoakEQBUWXGQiiqAVBFBRdZiCIohYEUVB0mYEgiloQREHRZQaCKGpBEAVFlxlpBSl/72t/NvF00v0Jr8uXSs6hcgqSs2tubSCAIAZobMlDAEHydM1NDQQQxACNLXkIIEierrmpgQCCGKCxJQ8BBMnTNTc1EEAQAzS25CGAIHm65qYGAghigMaWPARyCvL2T25f7v8mq3le/uHp7jKaroLyCsLbH7h6IXodBkEUzfDbvAqKLjMQRFELgigousxAEEUtCKKg6DIDQRS1IIiCossMBFHUgiAKii4zEERRC4IoKLrMQBBFLduf7v6Z4hgyzATWPN29hd2un83L2x+0tNNjLQ+vbqKKIE24rsBiBGkqEUGacF2BxQjSVOIOBSn373/cNBuL+xB49OiVJZgv0i3U3t3Dd7EUFF1mIIiiFgRRUHSZgSCKWhBEQdFlBoIoakEQBUWXGQiiqAVBFBRdZiCIohYEUVB0mZFWkL2X+18pG7k4m75X5pHlg0BOQXywZ4oABBAkQEmMOI4Agoxjz8kBCCBIgJIYcRwBBBnHnpMDEECQACUx4jgCCDKOPScHIIAgAUpixHEEEGQce04OQABBApTEiOMI5BTkv78ovPllE/bZfL1p/epk+qEpj8UhCCQWZP9c1hC/rChD6S0IQRSNIIiCossMBFHUgiAKii4zEERRC4IoKLrMQBBFLQiioOgyA0EUtSCIgqLLDARR1IIgCoouMxBEUcsGQfaW0zeKI8j4MAIXp9O3lgQEsVB7d8/2tz+4pziGDDMBns3bhG6Hz+ZdLKfHhbc/aKqnw2IEaYKKIE24rsBiBGkqcYeC7C2Pvm6ajcVdCFycHn9nCeZrEAu1hq9BFPFkjCOAIAr2fJtXQdFlBoIoakEQBUWXGQiiqAVBFBRdZiCIohYEUVB0mYEgiloQREHRZUZmQf6QNTIrv69OpluyPILcEMgpiBv8DOKdAIJ4b4j5hhJAkKH4Odw7AQTx3hDzDSWAIEPxc7h3AgjivSHmG0oAQYbi53DvBBDEe0PMN5QAggzFz+HeCSCI94aYbygBBBmKn8O9E0AQ7w0x31ACCDIUP4d7J4Ag3htivqEEEGQofg73TgBBvDfEfEMJIMhQ/BzunQCCeG+I+YYSQJCh+DncO4G4gnzy5xfe4TJffAKLf6//VEo52HaTy/Xlnddnx8+3rfv/x2cti9+uvXZwdHs+mz9r3cd6CIwmgCCjG+B81wQQxHU9DDeaAIKMboDzXRNAENf1MNxoAggyugHOd00AQVzXw3CjCSDI6AY43zUBBHFdD8ONJoAgoxvgfNcEdiJIufvghmsKDAeBTQSePHzRAqj5V01awlkLgegEECR6g8zflQCCdMVLeHQCCBK9QebvSgBBuuIlPDoBBIneIPN3JYAgXfESHp0AgkRvkPm7EkCQrngJj04AQaI3yPxdCSBIV7yERyeAINEbZP6uBBCkK17CoxNAkOgNMn9XAgjSFS/h0QkgSPQGmb8rAQTpipfw6AQQJHqDzN+VAIJ0xUt4dAIIEr1B5u9KAEG64iU8OgEEid4g83clgCBd8RIenQCCRG+Q+bsSeAMjhWVQU+QGJgAAAABJRU5ErkJggg==;" vertex="1" parent="1">
          <mxGeometry x="600" y="406" width="48" height="48" as="geometry" />
        </mxCell>
        <mxCell id="iMzCxJ1BoP2q3Y8NNwYc-128" value="" style="group;fillColor=default;flipH=1;" vertex="1" connectable="0" parent="1">
          <mxGeometry x="259" y="444" width="210" height="31" as="geometry" />
        </mxCell>
        <mxCell id="iMzCxJ1BoP2q3Y8NNwYc-129" value="" style="shape=flexArrow;endArrow=classic;html=1;rounded=0;labelBackgroundColor=default;strokeColor=default;fontFamily=Times New Roman;fontSize=16;fontColor=default;width=27.142857142857142;endSize=10.557142857142857;endWidth=18.91156462585034;movable=1;resizable=1;rotatable=1;deletable=1;editable=1;locked=0;connectable=1;fillColor=#F0F0F0;" edge="1" parent="iMzCxJ1BoP2q3Y8NNwYc-128">
          <mxGeometry width="50" height="50" relative="1" as="geometry">
            <mxPoint x="187.15025906735755" y="17" as="sourcePoint" />
            <mxPoint y="17" as="targetPoint" />
          </mxGeometry>
        </mxCell>
        <mxCell id="iMzCxJ1BoP2q3Y8NNwYc-130" value="&lt;font style=&quot;font-size: 16px;&quot;&gt;Send \(Enc(K_B\), results\()\)&lt;/font&gt;" style="text;html=1;align=center;verticalAlign=middle;resizable=0;points=[];autosize=1;strokeColor=none;fillColor=none;fontFamily=Times New Roman;fontSize=16;" vertex="1" parent="iMzCxJ1BoP2q3Y8NNwYc-128">
          <mxGeometry x="-5.647668393782383" width="209" height="31" as="geometry" />
        </mxCell>
        <mxCell id="iMzCxJ1BoP2q3Y8NNwYc-131" value="" style="endArrow=classic;html=1;rounded=0;fontFamily=Times New Roman;fontSize=16;" edge="1" parent="1">
          <mxGeometry width="50" height="50" relative="1" as="geometry">
            <mxPoint x="592" y="435" as="sourcePoint" />
            <mxPoint x="497" y="435" as="targetPoint" />
          </mxGeometry>
        </mxCell>
        <mxCell id="iMzCxJ1BoP2q3Y8NNwYc-132" value="&lt;font style=&quot;font-size: 14px;&quot;&gt;Encode with \(K_B\)&lt;/font&gt;" style="text;html=1;align=center;verticalAlign=middle;resizable=0;points=[];autosize=1;strokeColor=none;fillColor=none;fontFamily=Times New Roman;fontSize=16;" vertex="1" parent="1">
          <mxGeometry x="480" y="402" width="135" height="32" as="geometry" />
        </mxCell>
        <mxCell id="iMzCxJ1BoP2q3Y8NNwYc-133" value="&lt;font style=&quot;font-size: 14px;&quot;&gt;Encode with \(K_A\)&lt;/font&gt;" style="text;html=1;align=center;verticalAlign=middle;resizable=0;points=[];autosize=1;strokeColor=none;fillColor=none;fontFamily=Times New Roman;fontSize=16;" vertex="1" parent="1">
          <mxGeometry x="633" y="402" width="136" height="32" as="geometry" />
        </mxCell>
        <mxCell id="iMzCxJ1BoP2q3Y8NNwYc-134" value="" style="endArrow=classic;html=1;rounded=0;fontFamily=Times New Roman;fontSize=16;" edge="1" parent="1">
          <mxGeometry width="50" height="50" relative="1" as="geometry">
            <mxPoint x="654.0000000000009" y="435" as="sourcePoint" />
            <mxPoint x="749.0000000000009" y="435" as="targetPoint" />
          </mxGeometry>
        </mxCell>
        <mxCell id="iMzCxJ1BoP2q3Y8NNwYc-137" value="" style="shape=image;verticalLabelPosition=bottom;labelBackgroundColor=default;verticalAlign=top;aspect=fixed;imageAspect=0;image=data:image/png,iVBORw0KGgoAAAANSUhEUgAAAMgAAADICAYAAACtWK6eAAAAAXNSR0IArs4c6QAAB+pJREFUeF7tnTFvXEUURt+zggApyHKs/AKyuKDJ30gqOro0CJRsIndUUFAANbKUjYJEgSjpkz9BQxnWLVBEXoMUCUFwHorSIFn2zp18s3Ov70nrmW/unG+PHNvr53HgHwQgcCaBETYQgMDZBBCEVwcEziGAILw8IIAgvAYgUEeAzyB13NiVhACCJCmaa9YRQJA6buxKQgBBkhTNNesIIEgdN3YlIYAgSYrmmnUEEKSOG7uSEECQJEVzzToCCFLHjV1JCCBIkqK5Zh0BBKnjxq4kBBAkSdFcs44AgtRxY1cSAgiSpGiuWUcAQeq4sSsJAQRJUjTXrCOAIHXc2JWEAIIkKZpr1hFAkDpu7EpCwCzI5YPl1SRsuOYFJPBsf/bUci2zIDuLJzfGYeuR5RDWQsADgWl4cfN4vvfYMguCWGixNjQBBAldH8O3JoAgrQmTH5oAgoSuj+FbE0CQ1oTJD00AQULXx/CtCSBIa8LkhyaAIKHrY/jWBBCkNWHyQxNAkND1MXxrAgjSmjD5oQm4EmQahx+237r0SWiiDB+CwJ9/nTwch+nWumHdCXJ8Z7Z26HWX4uMQWEdgZ3H4PYKso8TH0xJAkLTVc/ESAghSQok1aQkgSNrquXgJAQQpocSatAQQJG31XLyEAIKUUGJNWgIIkrZ6Ll5CAEFKKLEmLQEESVs9Fy8hgCAllFiTlgCCpK2ei5cQQJASSqxJSwBB0lbPxUsIIEgJJdakJYAgaavn4iUEEKSEEmvSEkCQtNVz8RICCFJCiTVpCSBI2uq5eAkBBCmhxJq0BBAkbfVcvIQAgpRQYk1aAgiStnouXkIAQUoosSYtgZyCPPzpjSsn2x8oW1/NZz8q88jyQSCzIP8IK/h5NZ9dF+YR5YQAgmiKQBANR3cpCKKpBEE0HN2lIIimEgTRcHSXgiCaShBEw9FdCoJoKkEQDUd3KQiiqQRBNBzdpSCIppIzBblyf/mR5ghSXofA6u7su5r9CFJD7fSeMwXZXRw+mIbptuYYUioJrFbz2W7NXgSpoYYgGmqbS0EQE+tXbzXZyE/S+QxiaqbVYgQxkd20IOMwmuZjsZzA6s61qv/m8l8sTRV8F0vD0V0KgmgqQRANR3cpCKKpBEE0HN2lIIimEgTRcHSXgiCaShBEw9FdCoJoKkEQDUd3KQiiqQRBNBzdpaQVZPj9be3PJr54X/mDR3cvlKwD5RQka9vc20wAQczI2JCJAIJkapu7mgkgiBkZGzIRQJBMbXNXMwEEMSNjQyYCCJKpbe5qJoAgZmRsyEQAQTK1zV3NBBDEjIwNmQjkFOTVr9wuhUX/wdPdhTQdRWUWRPneKd6s6OhFrRwFQTQ0EUTD0V0KgmgqQRANR3cpCKKpBEE0HN2lIIimEgTRcHSXgiCaShBEw9FdCoJoKkEQDUd3KQiiqWTd090/1BxDSiWBiae7W8ht+tm8/PkDSzst1vLwahNVBDHhugCLEcRUIoKYcF2AxQhiKnGDggwHyzdNs7G4DYH92d81wXyRXkPt9B6+i6Xh6C4FQTSVIIiGo7sUBNFUgiAaju5SEERTCYJoOLpLQRBNJQii4eguBUE0lSCIhqO7lLSC7D5/51NlG0f39r5W5pHlg0BOQXywZ4oABBAkQEmM2I8AgvRjz8kBCCBIgJIYsR8BBOnHnpMDEECQACUxYj8CCNKPPScHIIAgAUpixH4EEKQfe04OQABBApTEiP0I5BTk5W8U/rt9z4R93JrOW7+av/uNKY/FIQjkFeRkm6e7h3iJ9h0SQTT8eTevhqO7FATRVIIgGo7uUhBEUwmCaDi6S0EQTSUIouHoLgVBNJUgiIajuxQE0VSCIBqO7lIQRFPJeU93/1xzBCmvQ+Bofu3Lmv0IUkPt9J51f/7gtuYYUioJ8GxeE7gNPpt3d3H4YOLPH5jqabAYQUxQEcSE6wIsRhBTiZsU5P4vn5lmY3ETAkd33/uqJpivQWqoGb4G0cST0osAgmjI821eDUd3KQiiqQRBNBzdpSCIphIE0XB0l4IgmkoQRMPRXQqCaCpBEA1HdymZBflN2Mavq/nsujCPKCcEcgriBD5j+CeAIP47YsKOBBCkI3yO9k8AQfx3xIQdCSBIR/gc7Z8AgvjviAk7EkCQjvA52j8BBPHfERN2JIAgHeFztH8CCOK/IybsSABBOsLnaP8EEMR/R0zYkQCCdITP0f4JIIj/jpiwIwEE6Qifo/0TQBD/HTFhRwII0hE+R/sngCD+O2LCjgQQpCN8jvZPIK4gz4eP/eNlwugEdi6N347DdGvdPabhxc3j+d7jdev+//HRsvjl2p3FkxvjsPXIuo/1EOhNAEF6N8D5rgkgiOt6GK43AQTp3QDnuyaAIK7rYbjeBBCkdwOc75oAgriuh+F6E0CQ3g1wvmsCCOK6HobrTQBBejfA+a4JbESQywfLq64pMBwEziHwbH/21ALI/FYTSzhrIRCdAIJEb5D5mxJAkKZ4CY9OAEGiN8j8TQkgSFO8hEcngCDRG2T+pgQQpClewqMTQJDoDTJ/UwII0hQv4dEJIEj0Bpm/KQEEaYqX8OgEECR6g8zflACCNMVLeHQCCBK9QeZvSgBBmuIlPDoBBIneIPM3JYAgTfESHp0AgkRvkPmbEkCQpngJj04AQaI3yPxNCSBIU7yERyeAINEbZP6mBBCkKV7CoxNAkOgNMn9TAv8Bo/9mUPK7ejAAAAAASUVORK5CYII=;" vertex="1" parent="1">
          <mxGeometry x="448" y="406" width="48" height="48" as="geometry" />
        </mxCell>
        <mxCell id="iMzCxJ1BoP2q3Y8NNwYc-138" value="&lt;font style=&quot;font-size: 18px;&quot;&gt;Encrypt results respectively&lt;/font&gt;" style="text;html=1;align=center;verticalAlign=middle;resizable=0;points=[];autosize=1;strokeColor=none;fillColor=none;fontFamily=Times New Roman;fontSize=16;" vertex="1" parent="1">
          <mxGeometry x="516.5" y="457" width="218" height="34" as="geometry" />
        </mxCell>
        <mxCell id="iMzCxJ1BoP2q3Y8NNwYc-142" value="" style="group;fillColor=default;flipH=0;" vertex="1" connectable="0" parent="1">
          <mxGeometry x="779" y="444" width="216.6476683937824" height="31" as="geometry" />
        </mxCell>
        <mxCell id="iMzCxJ1BoP2q3Y8NNwYc-143" value="" style="shape=flexArrow;endArrow=classic;html=1;rounded=0;labelBackgroundColor=default;strokeColor=default;fontFamily=Times New Roman;fontSize=16;fontColor=default;width=27.142857142857142;endSize=10.557142857142857;endWidth=18.91156462585034;movable=1;resizable=1;rotatable=1;deletable=1;editable=1;locked=0;connectable=1;fillColor=#F0F0F0;" edge="1" parent="iMzCxJ1BoP2q3Y8NNwYc-142">
          <mxGeometry width="50" height="50" relative="1" as="geometry">
            <mxPoint x="22.849740932642447" y="17" as="sourcePoint" />
            <mxPoint x="210" y="17" as="targetPoint" />
          </mxGeometry>
        </mxCell>
        <mxCell id="iMzCxJ1BoP2q3Y8NNwYc-144" value="&lt;font style=&quot;font-size: 16px;&quot;&gt;Send \(Enc(K_A\), results\()\)&lt;/font&gt;" style="text;html=1;align=center;verticalAlign=middle;resizable=0;points=[];autosize=1;strokeColor=none;fillColor=none;fontFamily=Times New Roman;fontSize=16;" vertex="1" parent="iMzCxJ1BoP2q3Y8NNwYc-142">
          <mxGeometry x="6.647668393782382" width="210" height="31" as="geometry" />
        </mxCell>
        <mxCell id="iMzCxJ1BoP2q3Y8NNwYc-136" value="" style="shape=image;verticalLabelPosition=bottom;labelBackgroundColor=default;verticalAlign=top;aspect=fixed;imageAspect=0;image=data:image/png,iVBORw0KGgoAAAANSUhEUgAAAMgAAADICAYAAACtWK6eAAAAAXNSR0IArs4c6QAAB/5JREFUeF7tnbFunEUURv/fToRECcobrFMnSvAT2LHiigq6NAhEQUsFJVDTRSBRIEp6R5afgMVSRJPCu0oHTYSDQSIiIBtZNMhSdmeuv9m51/ek9cw3d863R47t9e9x4B8EIPBKAiNsIACBVxNAEF4dEFhAAEF4eUAAQXgNQMBGgM8gNm7sSkIAQZIUzTVtBBDExo1dSQggSJKiuaaNAILYuLErCQEESVI017QRQBAbN3YlIYAgSYrmmjYCCGLjxq4kBBAkSdFc00YAQWzc2JWEAIIkKZpr2gggiI0bu5IQQJAkRXNNGwEEsXFjVxICCJKkaK5pI4AgNm7sSkIAQZIUzTVtBBDExo1dSQhUC7J3e3IjCRuueQUJ7D6eP6u5VrUg+3dv3l9bO9urOYS1EPBA4PR03N05PHpUMwuC1NBibWgCCBK6PoZvTQBBWhMmPzQBBAldH8O3JoAgrQmTH5oAgoSuj+FbE0CQ1oTJD00AQULXx/CtCSBIa8LkhyaAIKHrY/jWBBCkNWHyQxNwJsj43bXXX34QmijDhyDwz5/XvhqG8cGyYd0Jsj09Wjr0skvxcQgsI3CwOfkWQZZR4uNpCSBI2uq5eAkBBCmhxJq0BBAkbfVcvIQAgpRQYk1aAgiStnouXkIAQUoosSYtAQRJWz0XLyGAICWUWJOWAIKkrZ6LlxBAkBJKrElLAEHSVs/FSwggSAkl1qQlgCBpq+fiJQQQpIQSa9ISQJC01XPxEgIIUkKJNWkJIEja6rl4CQEEKaHEmrQEECRt9Vy8hACClFBiTVoCCJK2ei5eQgBBSiixJi0BBElbPRcvIYAgJZRYk5ZASkEO79y5frx+8ray9XvT+ffKPLJ8EEgryPP131+qKhiH4aet6eyWKo8cPwQQRNAFggggOo1AEEExCCKA6DQCQQTFIIgAotMIBBEUgyACiE4jEERQDIIIIDqNQBBBMQgigOg0AkEExSwSZH9z8p7gCCIuSWBnOv/GEoEgFmoX9iwS5GBz4+EwDB8KjiHCTuB4ezp707IdQSzUEERAbaURCFKD+/ytJqv6STqfQWqaabYWQWrQrlqQcRjGmvlYqyewNZ2Z/pvLf7EEXfBdLAFEpxEIIigGQQQQnUYgiKAYBBFAdBqBIIJiEEQA0WkEggiKQRABRKcRCCIoBkEEEJ1GIIigGAQRQHQakVaQpy9eSH828c6TJ7Jf4XX6Wkk5VkpBUjbNpU0EEMSEjU1ZCCBIlqa5p4kAgpiwsSkLAQTJ0jT3NBFAEBM2NmUhgCBZmuaeJgIIYsLGpiwEECRL09zTRABBTNjYlIVASkH++5Xbk5mq5HEYf+Pp7iqavnISC8KfP/D1UvQ5DYIIeuHdvAKITiMQRFAMggggOo1AEEExCCKA6DQCQQTFIIgAotMIBBEUgyACiE4jEERQDIIIIDqNQBBBMcue7j4OZ+8KjiHCSOBsGM94unsFvFU/m5c/f1BRTpulPLy6hiuC1NC6EmsRpKZGBKmhdSXWIkhNjasUZG8yea1mNta2IbA7n/9lSeaLdAu1C3v4LpYAotMIBBEUgyACiE4jEERQDIIIIDqNQBBBMQgigOg0AkEExSCIAKLTCAQRFIMgAohOI9IKcrz+x8fKTu5Nj75Q5pHlg0BKQXygZ4oIBBAkQkvM2I0AgnRDz8ERCCBIhJaYsRsBBOmGnoMjEECQCC0xYzcCCNINPQdHIIAgEVpixm4EEKQbeg6OQABBIrTEjN0IpBTk/DcKf10/+aiG+to4nC1av/3D/MuaPNbGIJBWkOfrPN09xku075QIIuDPu3kFEJ1GIIigGAQRQHQagSCCYhBEANFpBIIIikEQAUSnEQgiKAZBBBCdRiCIoBgEEUB0GoEggmIWPt39rY1PBUcQcUkC2z/OPrNEIIiF2oU9y/78AU93F0C+XATP5q3ht8pn8x5sbjxEkJp2mqxFkBqsCFJD60qsRZCaGlcsyCc1s7G2DYHt6exzSzJfg1ioVXwNIognoiMBBBHA59u8AohOIxBEUAyCCCA6jUAQQTEIIoDoNAJBBMUgiACi0wgEERSDIAKITiMyC/KLqpNxGH7ems5uqfLI8UMgpSB+8DOJdwII4r0h5utKAEG64udw7wQQxHtDzNeVAIJ0xc/h3gkgiPeGmK8rAQTpip/DvRNAEO8NMV9XAgjSFT+HeyeAIN4bYr6uBBCkK34O904AQbw3xHxdCSBIV/wc7p0AgnhviPm6EkCQrvg53DsBBPHeEPN1JYAgXfFzuHcCCOK9IebrSgBBuuLncO8Ewgry9/Hp+97hMl98AtffGL4ehvHBspucno67O4dHj5at+//Hx5rF52v37968v7Z2tle7j/UQ6E0AQXo3wPmuCSCI63oYrjcBBOndAOe7JoAgruthuN4EEKR3A5zvmgCCuK6H4XoTQJDeDXC+awII4roehutNAEF6N8D5rgmsRJC925MbrikwHAQWENh9PH9WA6j6rSY14ayFQHQCCBK9QeZvSgBBmuIlPDoBBIneIPM3JYAgTfESHp0AgkRvkPmbEkCQpngJj04AQaI3yPxNCSBIU7yERyeAINEbZP6mBBCkKV7CoxNAkOgNMn9TAgjSFC/h0QkgSPQGmb8pAQRpipfw6AQQJHqDzN+UAII0xUt4dAIIEr1B5m9KAEGa4iU8OgEEid4g8zclgCBN8RIenQCCRG+Q+ZsSQJCmeAmPTgBBojfI/E0J/AteVipQF+m7DgAAAABJRU5ErkJggg==;" vertex="1" parent="1">
          <mxGeometry x="754.9975862068967" y="405.99655172413793" width="48" height="48" as="geometry" />
        </mxCell>
        <mxCell id="iMzCxJ1BoP2q3Y8NNwYc-164" value="" style="group" vertex="1" connectable="0" parent="1">
          <mxGeometry x="157.00000000000003" y="383" width="120.99999999999997" height="38" as="geometry" />
        </mxCell>
        <mxCell id="iMzCxJ1BoP2q3Y8NNwYc-163" value="" style="rounded=1;whiteSpace=wrap;html=1;fontFamily=Helvetica;fontSize=11;fontColor=default;fillColor=#EDEDED;" vertex="1" parent="iMzCxJ1BoP2q3Y8NNwYc-164">
          <mxGeometry x="26.24999999999997" width="74" height="38" as="geometry" />
        </mxCell>
        <mxCell id="iMzCxJ1BoP2q3Y8NNwYc-150" value="&lt;font style=&quot;font-size: 20px;&quot;&gt;\(a \ge ?\; b\)&lt;/font&gt;" style="text;html=1;align=center;verticalAlign=middle;resizable=0;points=[];autosize=1;strokeColor=none;fillColor=none;fontFamily=Times New Roman;fontSize=16;" vertex="1" parent="iMzCxJ1BoP2q3Y8NNwYc-164">
          <mxGeometry y="1" width="121" height="36" as="geometry" />
        </mxCell>
        <mxCell id="iMzCxJ1BoP2q3Y8NNwYc-145" value="" style="shape=image;verticalLabelPosition=bottom;labelBackgroundColor=default;verticalAlign=top;aspect=fixed;imageAspect=0;image=data:image/png,iVBORw0KGgoAAAANSUhEUgAAAMgAAADICAYAAACtWK6eAAAAAXNSR0IArs4c6QAAB+pJREFUeF7tnTFvXEUURt+zggApyHKs/AKyuKDJ30gqOro0CJRsIndUUFAANbKUjYJEgSjpkz9BQxnWLVBEXoMUCUFwHorSIFn2zp18s3Ov70nrmW/unG+PHNvr53HgHwQgcCaBETYQgMDZBBCEVwcEziGAILw8IIAgvAYgUEeAzyB13NiVhACCJCmaa9YRQJA6buxKQgBBkhTNNesIIEgdN3YlIYAgSYrmmnUEEKSOG7uSEECQJEVzzToCCFLHjV1JCCBIkqK5Zh0BBKnjxq4kBBAkSdFcs44AgtRxY1cSAgiSpGiuWUcAQeq4sSsJAQRJUjTXrCOAIHXc2JWEAIIkKZpr1hFAkDpu7EpCwCzI5YPl1SRsuOYFJPBsf/bUci2zIDuLJzfGYeuR5RDWQsADgWl4cfN4vvfYMguCWGixNjQBBAldH8O3JoAgrQmTH5oAgoSuj+FbE0CQ1oTJD00AQULXx/CtCSBIa8LkhyaAIKHrY/jWBBCkNWHyQxNAkND1MXxrAgjSmjD5oQm4EmQahx+237r0SWiiDB+CwJ9/nTwch+nWumHdCXJ8Z7Z26HWX4uMQWEdgZ3H4PYKso8TH0xJAkLTVc/ESAghSQok1aQkgSNrquXgJAQQpocSatAQQJG31XLyEAIKUUGJNWgIIkrZ6Ll5CAEFKKLEmLQEESVs9Fy8hgCAllFiTlgCCpK2ei5cQQJASSqxJSwBB0lbPxUsIIEgJJdakJYAgaavn4iUEEKSEEmvSEkCQtNVz8RICCFJCiTVpCSBI2uq5eAkBBCmhxJq0BBAkbfVcvIQAgpRQYk1aAgiStnouXkIAQUoosSYtgZyCPPzpjSsn2x8oW1/NZz8q88jyQSCzIP8IK/h5NZ9dF+YR5YQAgmiKQBANR3cpCKKpBEE0HN2lIIimEgTRcHSXgiCaShBEw9FdCoJoKkEQDUd3KQiiqQRBNBzdpSCIppIzBblyf/mR5ghSXofA6u7su5r9CFJD7fSeMwXZXRw+mIbptuYYUioJrFbz2W7NXgSpoYYgGmqbS0EQE+tXbzXZyE/S+QxiaqbVYgQxkd20IOMwmuZjsZzA6s61qv/m8l8sTRV8F0vD0V0KgmgqQRANR3cpCKKpBEE0HN2lIIimEgTRcHSXgiCaShBEw9FdCoJoKkEQDUd3KQiiqQRBNBzdpaQVZPj9be3PJr54X/mDR3cvlKwD5RQka9vc20wAQczI2JCJAIJkapu7mgkgiBkZGzIRQJBMbXNXMwEEMSNjQyYCCJKpbe5qJoAgZmRsyEQAQTK1zV3NBBDEjIwNmQjkFOTVr9wuhUX/wdPdhTQdRWUWRPneKd6s6OhFrRwFQTQ0EUTD0V0KgmgqQRANR3cpCKKpBEE0HN2lIIimEgTRcHSXgiCaShBEw9FdCoJoKkEQDUd3KQiiqWTd090/1BxDSiWBiae7W8ht+tm8/PkDSzst1vLwahNVBDHhugCLEcRUIoKYcF2AxQhiKnGDggwHyzdNs7G4DYH92d81wXyRXkPt9B6+i6Xh6C4FQTSVIIiGo7sUBNFUgiAaju5SEERTCYJoOLpLQRBNJQii4eguBUE0lSCIhqO7lLSC7D5/51NlG0f39r5W5pHlg0BOQXywZ4oABBAkQEmM2I8AgvRjz8kBCCBIgJIYsR8BBOnHnpMDEECQACUxYj8CCNKPPScHIIAgAUpixH4EEKQfe04OQABBApTEiP0I5BTk5W8U/rt9z4R93JrOW7+av/uNKY/FIQjkFeRkm6e7h3iJ9h0SQTT8eTevhqO7FATRVIIgGo7uUhBEUwmCaDi6S0EQTSUIouHoLgVBNJUgiIajuxQE0VSCIBqO7lIQRFPJeU93/1xzBCmvQ+Bofu3Lmv0IUkPt9J51f/7gtuYYUioJ8GxeE7gNPpt3d3H4YOLPH5jqabAYQUxQEcSE6wIsRhBTiZsU5P4vn5lmY3ETAkd33/uqJpivQWqoGb4G0cST0osAgmjI821eDUd3KQiiqQRBNBzdpSCIphIE0XB0l4IgmkoQRMPRXQqCaCpBEA1HdymZBflN2Mavq/nsujCPKCcEcgriBD5j+CeAIP47YsKOBBCkI3yO9k8AQfx3xIQdCSBIR/gc7Z8AgvjviAk7EkCQjvA52j8BBPHfERN2JIAgHeFztH8CCOK/IybsSABBOsLnaP8EEMR/R0zYkQCCdITP0f4JIIj/jpiwIwEE6Qifo/0TQBD/HTFhRwII0hE+R/sngCD+O2LCjgQQpCN8jvZPIK4gz4eP/eNlwugEdi6N347DdGvdPabhxc3j+d7jdev+//HRsvjl2p3FkxvjsPXIuo/1EOhNAEF6N8D5rgkgiOt6GK43AQTp3QDnuyaAIK7rYbjeBBCkdwOc75oAgriuh+F6E0CQ3g1wvmsCCOK6HobrTQBBejfA+a4JbESQywfLq64pMBwEziHwbH/21ALI/FYTSzhrIRCdAIJEb5D5mxJAkKZ4CY9OAEGiN8j8TQkgSFO8hEcngCDRG2T+pgQQpClewqMTQJDoDTJ/UwII0hQv4dEJIEj0Bpm/KQEEaYqX8OgEECR6g8zflACCNMVLeHQCCBK9QeZvSgBBmuIlPDoBBIneIPM3JYAgTfESHp0AgkRvkPmbEkCQpngJj04AQaI3yPxNCSBIU7yERyeAINEbZP6mBBCkKV7CoxNAkOgNMn9TAv8Bo/9mUPK7ejAAAAAASUVORK5CYII=;" vertex="1" parent="1">
          <mxGeometry x="12.000000000000016" y="379" width="48" height="48" as="geometry" />
        </mxCell>
        <mxCell id="iMzCxJ1BoP2q3Y8NNwYc-147" value="&lt;font style=&quot;font-size: 20px;&quot;&gt;Obtain results with secret key&lt;/font&gt;" style="text;html=1;align=center;verticalAlign=middle;resizable=0;points=[];autosize=1;strokeColor=none;fillColor=none;fontFamily=Times New Roman;fontSize=16;" vertex="1" parent="1">
          <mxGeometry y="429" width="256" height="36" as="geometry" />
        </mxCell>
        <mxCell id="iMzCxJ1BoP2q3Y8NNwYc-148" value="" style="endArrow=classic;html=1;rounded=0;fontFamily=Times New Roman;fontSize=16;" edge="1" parent="1">
          <mxGeometry width="50" height="50" relative="1" as="geometry">
            <mxPoint x="73.08" y="413" as="sourcePoint" />
            <mxPoint x="171.08" y="413" as="targetPoint" />
          </mxGeometry>
        </mxCell>
        <mxCell id="iMzCxJ1BoP2q3Y8NNwYc-149" value="Decode" style="text;html=1;align=center;verticalAlign=middle;resizable=0;points=[];autosize=1;strokeColor=none;fillColor=none;fontFamily=Times New Roman;fontSize=16;" vertex="1" parent="1">
          <mxGeometry x="84.58" y="377" width="67" height="31" as="geometry" />
        </mxCell>
        <mxCell id="iMzCxJ1BoP2q3Y8NNwYc-158" value="" style="shape=image;verticalLabelPosition=bottom;labelBackgroundColor=default;verticalAlign=top;aspect=fixed;imageAspect=0;image=data:image/png,iVBORw0KGgoAAAANSUhEUgAAAMgAAADICAYAAACtWK6eAAAAAXNSR0IArs4c6QAAB/5JREFUeF7tnbFunEUURv/fToRECcobrFMnSvAT2LHiigq6NAhEQUsFJVDTRSBRIEp6R5afgMVSRJPCu0oHTYSDQSIiIBtZNMhSdmeuv9m51/ek9cw3d863R47t9e9x4B8EIPBKAiNsIACBVxNAEF4dEFhAAEF4eUAAQXgNQMBGgM8gNm7sSkIAQZIUzTVtBBDExo1dSQggSJKiuaaNAILYuLErCQEESVI017QRQBAbN3YlIYAgSYrmmjYCCGLjxq4kBBAkSdFc00YAQWzc2JWEAIIkKZpr2gggiI0bu5IQQJAkRXNNGwEEsXFjVxICCJKkaK5pI4AgNm7sSkIAQZIUzTVtBBDExo1dSQhUC7J3e3IjCRuueQUJ7D6eP6u5VrUg+3dv3l9bO9urOYS1EPBA4PR03N05PHpUMwuC1NBibWgCCBK6PoZvTQBBWhMmPzQBBAldH8O3JoAgrQmTH5oAgoSuj+FbE0CQ1oTJD00AQULXx/CtCSBIa8LkhyaAIKHrY/jWBBCkNWHyQxNwJsj43bXXX34QmijDhyDwz5/XvhqG8cGyYd0Jsj09Wjr0skvxcQgsI3CwOfkWQZZR4uNpCSBI2uq5eAkBBCmhxJq0BBAkbfVcvIQAgpRQYk1aAgiStnouXkIAQUoosSYtAQRJWz0XLyGAICWUWJOWAIKkrZ6LlxBAkBJKrElLAEHSVs/FSwggSAkl1qQlgCBpq+fiJQQQpIQSa9ISQJC01XPxEgIIUkKJNWkJIEja6rl4CQEEKaHEmrQEECRt9Vy8hACClFBiTVoCCJK2ei5eQgBBSiixJi0BBElbPRcvIYAgJZRYk5ZASkEO79y5frx+8ray9XvT+ffKPLJ8EEgryPP131+qKhiH4aet6eyWKo8cPwQQRNAFggggOo1AEEExCCKA6DQCQQTFIIgAotMIBBEUgyACiE4jEERQDIIIIDqNQBBBMQgigOg0AkEExSwSZH9z8p7gCCIuSWBnOv/GEoEgFmoX9iwS5GBz4+EwDB8KjiHCTuB4ezp707IdQSzUEERAbaURCFKD+/ytJqv6STqfQWqaabYWQWrQrlqQcRjGmvlYqyewNZ2Z/pvLf7EEXfBdLAFEpxEIIigGQQQQnUYgiKAYBBFAdBqBIIJiEEQA0WkEggiKQRABRKcRCCIoBkEEEJ1GIIigGAQRQHQakVaQpy9eSH828c6TJ7Jf4XX6Wkk5VkpBUjbNpU0EEMSEjU1ZCCBIlqa5p4kAgpiwsSkLAQTJ0jT3NBFAEBM2NmUhgCBZmuaeJgIIYsLGpiwEECRL09zTRABBTNjYlIVASkH++5Xbk5mq5HEYf+Pp7iqavnISC8KfP/D1UvQ5DYIIeuHdvAKITiMQRFAMggggOo1AEEExCCKA6DQCQQTFIIgAotMIBBEUgyACiE4jEERQDIIIIDqNQBBBMcue7j4OZ+8KjiHCSOBsGM94unsFvFU/m5c/f1BRTpulPLy6hiuC1NC6EmsRpKZGBKmhdSXWIkhNjasUZG8yea1mNta2IbA7n/9lSeaLdAu1C3v4LpYAotMIBBEUgyACiE4jEERQDIIIIDqNQBBBMQgigOg0AkEExSCIAKLTCAQRFIMgAohOI9IKcrz+x8fKTu5Nj75Q5pHlg0BKQXygZ4oIBBAkQkvM2I0AgnRDz8ERCCBIhJaYsRsBBOmGnoMjEECQCC0xYzcCCNINPQdHIIAgEVpixm4EEKQbeg6OQABBIrTEjN0IpBTk/DcKf10/+aiG+to4nC1av/3D/MuaPNbGIJBWkOfrPN09xku075QIIuDPu3kFEJ1GIIigGAQRQHQagSCCYhBEANFpBIIIikEQAUSnEQgiKAZBBBCdRiCIoBgEEUB0GoEggmIWPt39rY1PBUcQcUkC2z/OPrNEIIiF2oU9y/78AU93F0C+XATP5q3ht8pn8x5sbjxEkJp2mqxFkBqsCFJD60qsRZCaGlcsyCc1s7G2DYHt6exzSzJfg1ioVXwNIognoiMBBBHA59u8AohOIxBEUAyCCCA6jUAQQTEIIoDoNAJBBMUgiACi0wgEERSDIAKITiMyC/KLqpNxGH7ems5uqfLI8UMgpSB+8DOJdwII4r0h5utKAEG64udw7wQQxHtDzNeVAIJ0xc/h3gkgiPeGmK8rAQTpip/DvRNAEO8NMV9XAgjSFT+HeyeAIN4bYr6uBBCkK34O904AQbw3xHxdCSBIV/wc7p0AgnhviPm6EkCQrvg53DsBBPHeEPN1JYAgXfFzuHcCCOK9IebrSgBBuuLncO8Ewgry9/Hp+97hMl98AtffGL4ehvHBspucno67O4dHj5at+//Hx5rF52v37968v7Z2tle7j/UQ6E0AQXo3wPmuCSCI63oYrjcBBOndAOe7JoAgruthuN4EEKR3A5zvmgCCuK6H4XoTQJDeDXC+awII4roehutNAEF6N8D5rgmsRJC925MbrikwHAQWENh9PH9WA6j6rSY14ayFQHQCCBK9QeZvSgBBmuIlPDoBBIneIPM3JYAgTfESHp0AgkRvkPmbEkCQpngJj04AQaI3yPxNCSBIU7yERyeAINEbZP6mBBCkKV7CoxNAkOgNMn9TAgjSFC/h0QkgSPQGmb8pAQRpipfw6AQQJHqDzN+UAII0xUt4dAIIEr1B5m9KAEGa4iU8OgEEid4g8zclgCBN8RIenQCCRG+Q+ZsSQJCmeAmPTgBBojfI/E0J/AteVipQF+m7DgAAAABJRU5ErkJggg==;" vertex="1" parent="1">
          <mxGeometry x="1179.4975862068968" y="381.99655172413793" width="48" height="48" as="geometry" />
        </mxCell>
        <mxCell id="iMzCxJ1BoP2q3Y8NNwYc-159" value="" style="endArrow=classic;html=1;rounded=0;fontFamily=Times New Roman;fontSize=16;" edge="1" parent="1">
          <mxGeometry width="50" height="50" relative="1" as="geometry">
            <mxPoint x="1163.000000000001" y="413" as="sourcePoint" />
            <mxPoint x="1065.000000000001" y="413" as="targetPoint" />
          </mxGeometry>
        </mxCell>
        <mxCell id="iMzCxJ1BoP2q3Y8NNwYc-161" value="&lt;font style=&quot;font-size: 20px;&quot;&gt;Obtain results with secret key&lt;/font&gt;" style="text;html=1;align=center;verticalAlign=middle;resizable=0;points=[];autosize=1;strokeColor=none;fillColor=none;fontFamily=Times New Roman;fontSize=16;" vertex="1" parent="1">
          <mxGeometry x="983" y="429" width="256" height="36" as="geometry" />
        </mxCell>
        <mxCell id="iMzCxJ1BoP2q3Y8NNwYc-162" value="Decode" style="text;html=1;align=center;verticalAlign=middle;resizable=0;points=[];autosize=1;strokeColor=none;fillColor=none;fontFamily=Times New Roman;fontSize=16;" vertex="1" parent="1">
          <mxGeometry x="1082" y="377" width="67" height="31" as="geometry" />
        </mxCell>
        <mxCell id="iMzCxJ1BoP2q3Y8NNwYc-165" value="" style="group" vertex="1" connectable="0" parent="1">
          <mxGeometry x="940" y="389" width="120.99999999999997" height="38" as="geometry" />
        </mxCell>
        <mxCell id="iMzCxJ1BoP2q3Y8NNwYc-166" value="" style="rounded=1;whiteSpace=wrap;html=1;fontFamily=Helvetica;fontSize=11;fontColor=default;fillColor=#EDEDED;" vertex="1" parent="iMzCxJ1BoP2q3Y8NNwYc-165">
          <mxGeometry x="26.24999999999997" width="74" height="38" as="geometry" />
        </mxCell>
        <mxCell id="iMzCxJ1BoP2q3Y8NNwYc-167" value="&lt;font style=&quot;font-size: 20px;&quot;&gt;\(a \ge ?\; b\)&lt;/font&gt;" style="text;html=1;align=center;verticalAlign=middle;resizable=0;points=[];autosize=1;strokeColor=none;fillColor=none;fontFamily=Times New Roman;fontSize=16;" vertex="1" parent="iMzCxJ1BoP2q3Y8NNwYc-165">
          <mxGeometry y="1" width="121" height="36" as="geometry" />
        </mxCell>
        <mxCell id="iMzCxJ1BoP2q3Y8NNwYc-168" value="&lt;span style=&quot;color: rgb(0, 0, 0); font-size: 16px; font-style: normal; font-variant-ligatures: normal; font-variant-caps: normal; font-weight: 400; letter-spacing: normal; orphans: 2; text-align: center; text-indent: 0px; text-transform: none; widows: 2; word-spacing: 0px; -webkit-text-stroke-width: 0px; background-color: rgb(251, 251, 251); text-decoration-thickness: initial; text-decoration-style: initial; text-decoration-color: initial; float: none; display: inline !important;&quot;&gt;Secret \(a\)&amp;nbsp;&lt;/span&gt;" style="text;whiteSpace=wrap;html=1;fontSize=16;fontFamily=Times New Roman;fontColor=default;" vertex="1" parent="1">
          <mxGeometry x="3.6199999999999903" y="180.89999999999998" width="57.76" height="30.1" as="geometry" />
        </mxCell>
        <mxCell id="iMzCxJ1BoP2q3Y8NNwYc-169" value="" style="group" vertex="1" connectable="0" parent="1">
          <mxGeometry x="579" y="297.65999999999997" width="72" height="11" as="geometry" />
        </mxCell>
        <mxCell id="iMzCxJ1BoP2q3Y8NNwYc-115" value="" style="rounded=0;whiteSpace=wrap;html=1;fontFamily=Times New Roman;fontSize=16;fontColor=default;fillColor=#ea95e0;strokeColor=none;" vertex="1" parent="iMzCxJ1BoP2q3Y8NNwYc-169">
          <mxGeometry width="36" height="11" as="geometry" />
        </mxCell>
        <mxCell id="iMzCxJ1BoP2q3Y8NNwYc-116" value="" style="rounded=0;whiteSpace=wrap;html=1;fontFamily=Times New Roman;fontSize=16;fontColor=default;fillColor=#9264f6;strokeColor=none;shadow=0;glass=0;fillStyle=auto;container=0;" vertex="1" parent="iMzCxJ1BoP2q3Y8NNwYc-169">
          <mxGeometry x="36" width="36" height="11" as="geometry" />
        </mxCell>
        <mxCell id="iMzCxJ1BoP2q3Y8NNwYc-171" value="" style="group" vertex="1" connectable="0" parent="1">
          <mxGeometry x="579" y="230.99999999999997" width="72" height="11" as="geometry" />
        </mxCell>
        <mxCell id="iMzCxJ1BoP2q3Y8NNwYc-172" value="" style="rounded=0;whiteSpace=wrap;html=1;fontFamily=Times New Roman;fontSize=16;fontColor=default;fillColor=#ea95e0;strokeColor=none;" vertex="1" parent="iMzCxJ1BoP2q3Y8NNwYc-171">
          <mxGeometry width="36" height="11" as="geometry" />
        </mxCell>
        <mxCell id="iMzCxJ1BoP2q3Y8NNwYc-173" value="" style="rounded=0;whiteSpace=wrap;html=1;fontFamily=Times New Roman;fontSize=16;fontColor=default;fillColor=#9463f3;strokeColor=none;shadow=0;glass=0;fillStyle=auto;container=0;" vertex="1" parent="iMzCxJ1BoP2q3Y8NNwYc-171">
          <mxGeometry x="36" width="36" height="11" as="geometry" />
        </mxCell>
        <mxCell id="iMzCxJ1BoP2q3Y8NNwYc-177" value="&lt;span style=&quot;color: rgb(0, 0, 0); font-family: &amp;quot;Times New Roman&amp;quot;; font-size: 20px; font-style: normal; font-variant-ligatures: normal; font-variant-caps: normal; font-weight: 400; letter-spacing: normal; orphans: 2; text-align: center; text-indent: 0px; text-transform: none; widows: 2; word-spacing: 0px; -webkit-text-stroke-width: 0px; background-color: rgb(251, 251, 251); text-decoration-thickness: initial; text-decoration-style: initial; text-decoration-color: initial; float: none; display: inline !important;&quot;&gt;Randomly generated key list \(K_B\)&lt;/span&gt;" style="text;whiteSpace=wrap;html=1;fontSize=11;fontFamily=Helvetica;fontColor=default;" vertex="1" parent="1">
          <mxGeometry x="971.79" y="263.57" width="271.21" height="36.59" as="geometry" />
        </mxCell>
        <mxCell id="iMzCxJ1BoP2q3Y8NNwYc-178" value="&lt;span style=&quot;color: rgb(0, 0, 0); font-family: &amp;quot;Times New Roman&amp;quot;; font-size: 20px; font-style: normal; font-variant-ligatures: normal; font-variant-caps: normal; font-weight: 400; letter-spacing: normal; orphans: 2; text-align: center; text-indent: 0px; text-transform: none; widows: 2; word-spacing: 0px; -webkit-text-stroke-width: 0px; text-decoration-thickness: initial; text-decoration-style: initial; text-decoration-color: initial; float: none; display: inline !important;&quot;&gt;Randomly generated key list \(K_A\)&lt;/span&gt;" style="text;whiteSpace=wrap;html=1;fontSize=11;fontFamily=Helvetica;fontColor=default;labelBackgroundColor=default;" vertex="1" parent="1">
          <mxGeometry x="3.6200000000000045" y="261.52" width="274.38" height="34.48" as="geometry" />
        </mxCell>
      </root>
    </mxGraphModel>
  </diagram>
</mxfile>
